<svg class="img-fluid" id="outputsvg" xmlns="http://www.w3.org/2000/svg" style="transform: none; transform-origin: 50% 50%; cursor: move; max-height: none;" width="1604" height="1596" viewBox="0 0 16040 15960"><g id="l60FJWVNG41e3w7VekidJKd" fill="none" stroke="rgb(182,167,153)" stroke-width="10" style="transform: none;"><g style="transform: none;"><path id="pkXyG5vMN" d="M0 7980 l0 -7980 8020 0 8020 0 0 7980 0 7980 -8020 0 -8020 0 0 -7980z m8625 7135 c22 -13 52 -35 66 -49 23 -22 33 -25 95 -24 55 1 81 -4 126 -24 131 -60 242 -231 257 -395 13 -132 -6 -204 -80 -306 -40 -55 -59 -126 -59 -220 l0 -79 -34 30 c-51 44 -96 56 -185 47 -42 -4 -96 -7 -121 -6 -194 5 -430 163 -484 324 -21 64 -20 85 9 169 28 81 31 115 12 143 -8 11 -19 41 -26 67 -11 40 -11 54 4 100 65 198 272 308 420 223z m-1880 -100 c70 -29 90 -30 154 -9 88 29 190 -3 294 -93 107 -92 160 -184 190 -330 12 -58 12 -76 0 -123 -8 -30 -21 -81 -29 -113 -12 -47 -13 -76 -5 -140 5 -45 13 -92 17 -104 6 -23 6 -23 -30 -8 -56 24 -176 20 -221 -7 -86 -50 -232 -61 -349 -27 -232 69 -338 193 -322 379 7 73 6 77 -20 105 -37 40 -74 122 -74 165 0 70 41 160 104 227 49 53 68 66 120 82 80 26 99 25 171 -4z m3611 -225 c51 -22 105 -69 129 -114 15 -28 28 -37 64 -46 126 -31 218 -133 265 -289 45 -151 -11 -361 -121 -460 -26 -24 -62 -57 -80 -73 -17 -15 -43 -51 -56 -79 l-24 -51 -6 83 c-6 92 -36 249 -73 376 -30 105 -99 264 -121 281 -20 14 -62 16 -97 2 -23 -8 -26 -15 -26 -60 0 -40 9 -67 49 -142 69 -132 156 -364 191 -505 10 -41 13 -43 47 -43 34 0 35 -1 29 -31 -3 -17 -6 -39 -6 -48 0 -9 -19 6 -46 37 -55 63 -89 82 -144 82 -85 0 -276 94 -346 171 -76 85 -131 174 -152 252 -15 53 14 144 69 221 l41 58 -6 71 c-7 67 -5 76 24 134 31 63 97 130 155 161 81 42 161 46 241 12z m1583 -760 c32 -16 73 -44 91 -62 31 -31 80 -119 80 -145 0 -6 24 -25 54 -42 126 -70 195 -239 166 -401 -15 -82 -79 -212 -136 -278 -31 -35 -70 -63 -132 -96 -53 -27 -104 -62 -125 -85 l-36 -40 7 32 c12 56 8 596 -6 661 -16 79 -33 96 -93 96 -80 0 -85 -32 -34 -255 31 -136 50 -328 46 -457 l-3 -98 37 0 c30 0 35 -3 26 -14 -6 -7 -17 -31 -25 -52 -9 -24 -15 -32 -16 -19 -1 31 -38 107 -67 137 -15 16 -52 37 -82 49 -66 24 -175 103 -230 165 -86 98 -160 293 -142 375 14 62 71 148 127 192 48 38 52 44 58 95 18 151 156 270 314 271 50 1 74 -5 121 -29z m-3439 -35 c96 -9 229 -23 295 -31 224 -29 245 -29 245 -8 0 16 3 15 13 -6 11 -21 26 -27 127 -46 164 -31 466 -107 590 -149 132 -44 105 -39 -75 14 -207 60 -478 121 -575 128 -47 3 -88 11 -92 16 -7 11 -54 18 -329 47 -411 43 -746 48 -1117 18 -131 -10 -145 -13 -152 -32 -7 -17 -9 -18 -9 -3 -1 23 -33 22 -243 -8 -285 -41 -533 -95 -817 -176 -212 -61 -234 -70 -266 -106 -55 -63 -65 -101 -63 -250 1 -113 -3 -152 -20 -217 -25 -91 -92 -212 -159 -286 -47 -52 -146 -127 -196 -148 -50 -21 -155 -15 -222 15 -87 37 -128 40 -184 12 -67 -34 -138 -32 -221 7 -91 43 -169 117 -210 201 -29 59 -34 78 -35 143 0 65 4 82 30 129 17 30 47 72 67 94 36 39 37 43 36 112 0 65 3 79 38 145 67 128 206 226 384 272 78 19 93 20 180 9 108 -13 167 -38 255 -105 77 -59 160 -86 267 -86 66 0 109 9 266 54 340 99 597 156 887 195 83 12 172 25 198 31 27 5 83 10 125 11 42 1 104 5 137 9 115 14 661 11 845 -5z m-1040 -376 c69 -109 88 -155 95 -235 7 -67 4 -85 -19 -157 -34 -102 -71 -161 -146 -231 -67 -62 -137 -91 -213 -87 -39 2 -54 -3 -79 -24 -47 -40 -123 -75 -162 -75 -49 0 -123 27 -173 62 -42 31 -104 111 -122 161 -16 41 -13 117 4 151 21 39 19 111 -5 174 -40 105 -17 175 95 288 124 127 301 191 447 164 80 -15 136 -4 195 41 l38 28 5 -103 c5 -96 7 -106 40 -157z m1183 231 c31 -6 82 -23 113 -37 47 -21 66 -25 118 -21 34 3 76 13 94 22 l33 17 -16 -37 c-25 -59 -20 -196 10 -288 29 -89 30 -111 10 -191 -38 -147 -140 -282 -265 -350 -59 -31 -112 -36 -232 -20 -48 6 -64 4 -103 -15 -26 -13 -64 -23 -84 -23 -53 0 -151 48 -199 96 -49 50 -94 152 -94 213 0 46 37 127 72 159 20 18 21 25 15 96 -14 158 46 253 205 328 123 57 211 71 323 51z m1462 -206 c24 -11 25 -13 5 -8 -14 4 -38 13 -55 20 -24 11 -25 13 -5 8 14 -4 39 -13 55 -20z m95 -36 c10 -6 7 -7 -10 -2 -14 3 -32 11 -40 16 -10 6 -7 7 10 2 14 -3 32 -11 40 -16z m-237 -44 c78 -20 167 -65 216 -109 50 -46 79 -55 167 -55 l74 0 -27 -42 c-28 -41 -28 -41 -31 -15 -3 23 -8 27 -34 27 -17 0 -63 -18 -102 -39 -136 -76 -296 -139 -445 -177 -51 -13 -99 -29 -107 -35 -8 -7 -14 -31 -14 -60 0 -39 4 -50 22 -60 70 -38 342 69 589 231 41 27 75 47 77 46 1 -2 -2 -15 -8 -30 -5 -15 -10 -73 -9 -129 1 -114 -7 -139 -73 -243 -66 -106 -171 -185 -297 -224 -83 -26 -156 -13 -234 42 -24 17 -37 19 -102 13 -68 -7 -80 -5 -127 18 -118 58 -179 146 -186 268 -4 59 -1 74 24 120 31 56 89 119 110 119 13 0 34 58 34 93 0 26 45 111 82 152 76 88 254 127 401 89z m513 -54 c23 0 34 -5 34 -15 0 -7 8 -19 18 -24 14 -9 11 -10 -15 -11 -21 0 -33 5 -33 14 0 7 -15 20 -32 28 -18 8 -27 13 -20 11 8 -2 29 -3 48 -3z m631 -536 c162 -33 298 -125 386 -260 37 -57 90 -89 159 -98 l50 -7 -39 -28 -38 -28 -3 24 c-3 20 -9 23 -50 23 -26 0 -63 -5 -82 -10 -68 -21 -287 -40 -454 -40 -144 0 -172 -3 -188 -17 -25 -22 -24 -77 3 -104 20 -20 29 -21 183 -17 170 5 267 21 458 77 l98 28 -20 -32 c-11 -17 -27 -61 -36 -96 -42 -164 -156 -289 -326 -355 -61 -24 -88 -29 -163 -29 -84 0 -94 2 -155 36 -41 22 -74 49 -89 72 -16 24 -32 37 -46 37 -34 0 -131 35 -168 60 -47 32 -105 127 -119 193 -9 44 -9 67 1 109 26 108 120 211 203 225 34 5 42 12 64 55 50 99 128 166 214 184 73 16 70 16 157 -2z m2072 -29 c71 -17 142 -63 189 -123 31 -38 62 -126 62 -172 0 -18 14 -40 46 -70 65 -63 104 -148 104 -227 0 -148 -53 -268 -169 -384 -87 -88 -130 -112 -244 -140 -45 -11 -98 -31 -118 -44 l-36 -23 24 65 c72 200 113 408 113 582 0 135 -8 151 -76 151 -31 0 -46 -5 -52 -17 -5 -10 -12 -97 -15 -193 -7 -182 -35 -409 -61 -495 -9 -27 -16 -62 -16 -77 0 -25 3 -28 36 -28 l36 0 -28 -33 c-16 -18 -37 -44 -46 -57 -17 -25 -17 -25 -18 35 -1 90 -34 155 -98 190 -96 52 -190 180 -233 319 -54 172 -40 280 51 379 42 46 72 66 160 107 8 4 17 20 21 36 15 72 96 167 166 195 23 10 113 35 133 38 3 0 34 -6 69 -14z m-1347 -275 c4 -26 1 -30 -18 -30 -17 0 -23 7 -26 30 -4 26 -1 30 18 30 17 0 23 -7 26 -30z m356 -631 c78 -27 186 -93 239 -145 58 -59 120 -157 139 -219 17 -62 50 -96 124 -128 l55 -24 -45 -20 -45 -19 -3 31 -3 32 -127 6 c-155 7 -308 30 -423 62 -111 32 -189 41 -217 26 -18 -10 -22 -21 -22 -61 0 -45 3 -52 30 -69 53 -32 253 -56 465 -56 105 0 209 4 233 8 l43 7 -36 -31 c-20 -18 -55 -66 -77 -108 -54 -100 -125 -168 -230 -219 -138 -66 -237 -73 -381 -26 -58 19 -147 98 -172 153 -15 34 -28 45 -80 70 -116 54 -185 157 -185 276 0 42 8 68 36 122 61 117 128 168 239 182 53 6 69 12 83 32 40 58 122 118 192 140 33 11 98 2 168 -22z m-3306 -171 c37 -24 73 -60 96 -95 l37 -56 0 -291 c0 -177 -5 -322 -12 -371 -8 -50 -14 -266 -18 -573 l-5 -493 117 -58 c157 -77 371 -189 409 -215 196 -131 314 -234 361 -313 22 -39 29 -43 63 -43 38 0 40 2 104 98 61 94 278 336 485 543 81 81 89 87 148 99 71 14 87 13 208 -25 81 -26 107 -29 271 -33 198 -4 351 9 599 54 133 23 152 24 340 17 l200 -8 -230 -114 c-126 -62 -266 -129 -310 -148 -153 -65 -181 -78 -330 -157 -82 -43 -213 -111 -290 -151 -77 -40 -192 -104 -255 -142 -63 -39 -131 -78 -150 -88 -61 -31 -242 -155 -349 -239 -57 -44 -158 -138 -223 -209 -113 -120 -119 -129 -116 -165 l3 -37 90 -8 c105 -9 331 4 600 33 291 32 311 30 411 -51 35 -29 64 -54 64 -56 0 -14 -69 -99 -131 -162 -127 -128 -495 -348 -681 -409 -74 -24 -96 -22 -263 18 -44 11 -147 31 -230 45 -82 14 -192 35 -242 45 -156 33 -157 33 -244 -62 -41 -46 -133 -152 -203 -235 -70 -84 -132 -155 -137 -158 -5 -4 -9 -24 -9 -46 0 -34 4 -41 28 -50 64 -25 389 -39 691 -30 94 2 96 2 176 -39 44 -23 91 -51 104 -61 l24 -19 -18 -48 c-44 -116 -88 -185 -179 -279 -46 -48 -54 -53 -94 -53 -50 0 -118 16 -281 66 -140 44 -370 94 -428 94 -42 0 -43 -1 -43 -34 0 -32 5 -37 83 -82 104 -61 384 -250 552 -373 72 -53 149 -109 171 -124 23 -15 52 -39 64 -52 22 -24 23 -26 8 -57 -9 -18 -27 -60 -40 -93 -14 -33 -42 -84 -64 -114 -21 -29 -55 -75 -74 -101 -33 -45 -111 -114 -173 -153 -31 -20 -32 -19 -41 59 -14 118 -113 355 -222 526 -163 259 -274 414 -383 530 -48 51 -59 58 -93 58 l-38 0 0 -50 c0 -53 20 -178 95 -590 24 -135 47 -282 51 -328 l7 -82 -85 -84 c-89 -88 -184 -144 -282 -166 -25 -5 -66 -20 -91 -32 -43 -21 -45 -24 -45 -64 0 -39 4 -44 58 -85 31 -24 85 -69 118 -100 l61 -57 89 -8 c49 -5 391 -8 759 -8 513 1 708 5 830 16 149 14 165 14 245 -3 101 -21 126 -30 180 -64 l40 -25 -15 -38 c-24 -56 -105 -132 -255 -241 -384 -278 -565 -363 -744 -348 -39 4 -123 22 -186 42 -145 44 -328 85 -386 85 l-44 0 0 -38 c0 -25 10 -53 33 -87 89 -135 160 -267 164 -308 4 -38 -2 -51 -57 -135 -72 -107 -186 -212 -305 -279 -101 -56 -161 -98 -221 -156 l-52 -49 -5 164 c-4 141 -9 178 -35 273 -56 203 -116 357 -261 667 -31 67 -46 89 -63 92 -13 2 -57 9 -98 15 -41 6 -214 31 -385 56 -170 24 -374 51 -453 60 -79 8 -162 19 -185 24 -23 5 -123 17 -221 26 -202 20 -197 21 -211 -53 -15 -87 -69 -235 -104 -289 -42 -65 -92 -115 -197 -197 -77 -59 -250 -171 -288 -186 -13 -5 -58 -25 -99 -44 -57 -28 -94 -38 -153 -43 l-77 -6 7 49 c8 52 48 209 73 284 35 104 115 262 187 369 66 98 76 119 76 157 0 24 -3 44 -7 44 -5 0 -111 12 -238 25 -361 39 -733 51 -1046 36 -144 -7 -263 -10 -266 -8 -5 6 30 74 54 104 10 12 56 46 103 75 47 30 144 101 216 158 379 303 399 317 484 331 87 15 198 5 295 -27 246 -79 718 -204 770 -204 29 0 39 7 67 48 17 26 50 70 73 98 22 28 67 88 100 133 83 113 84 115 90 110 2 -3 -4 -102 -15 -220 -11 -118 -20 -220 -20 -227 0 -19 38 -30 219 -62 341 -59 636 -98 814 -107 l127 -6 0 32 c0 21 -14 55 -37 92 -70 111 -204 291 -290 392 -50 57 -76 94 -62 87 172 -90 560 -327 574 -350 4 -6 24 -10 45 -10 37 0 39 2 54 48 19 61 46 418 46 622 l0 160 -32 14 -33 14 33 1 c24 1 32 5 32 20 0 33 -48 502 -55 536 -4 18 -19 23 -102 37 -54 10 -135 20 -180 23 l-83 6 0 -47 c0 -38 6 -54 33 -88 42 -50 53 -72 78 -144 26 -76 87 -175 149 -242 28 -30 56 -63 61 -73 10 -17 9 -17 -18 -3 -48 24 -263 94 -341 111 -40 8 -100 15 -132 15 -51 0 -64 -4 -102 -33 -101 -77 -244 -165 -253 -155 -7 7 95 239 173 395 57 112 91 169 112 184 25 19 30 30 30 62 l0 40 -72 -6 c-40 -4 -138 -18 -218 -32 -80 -14 -172 -30 -205 -35 -33 -6 -71 -13 -85 -16 l-25 -6 26 29 c14 15 51 62 81 103 110 149 324 344 445 406 93 47 136 44 309 -16 82 -29 168 -55 192 -57 l42 -5 0 48 c0 81 -59 275 -169 554 l-29 75 -76 12 c-350 54 -1063 90 -1223 62 l-73 -13 0 -45 c0 -26 5 -102 10 -171 6 -69 15 -199 21 -290 10 -160 17 -216 59 -480 11 -69 27 -179 35 -245 16 -127 33 -190 72 -269 15 -30 22 -54 17 -65 -4 -9 -13 -41 -18 -71 -10 -46 -17 -58 -52 -85 -199 -147 -294 -219 -336 -255 -20 -17 -56 -40 -80 -52 -24 -11 -60 -36 -80 -55 -49 -47 -66 -42 -169 52 -108 100 -146 118 -384 185 -44 12 -125 36 -180 52 -111 34 -148 34 -445 5 -115 -12 -139 -12 -163 0 -21 11 -27 19 -21 31 4 9 11 46 16 82 4 36 13 95 18 132 6 37 10 154 11 260 0 106 4 265 8 353 14 279 -7 1030 -44 1600 -17 270 -70 616 -108 707 -8 18 -17 51 -21 73 -11 59 -111 363 -163 495 -24 63 -66 174 -93 245 -27 72 -58 151 -69 178 -12 26 -30 68 -42 94 l-20 47 22 -19 c23 -21 138 -153 202 -233 110 -137 341 -505 378 -602 118 -310 239 -776 239 -916 0 -53 8 -64 50 -64 34 0 39 4 55 40 18 40 76 100 96 100 11 0 75 -27 229 -95 143 -63 262 -88 420 -89 l125 -1 1 155 c1 85 3 497 5 915 l4 760 -47 -1 c-34 0 -59 -8 -92 -30 -26 -16 -108 -68 -184 -117 -75 -48 -148 -95 -162 -105 l-24 -17 20 35 c186 312 333 599 369 720 8 25 31 94 53 155 l39 110 44 16 c24 9 87 38 139 65 91 46 98 48 170 46 64 -2 82 -7 129 -35 72 -43 101 -73 140 -146 37 -70 37 -62 7 -296 -18 -144 -29 -255 -51 -515 -8 -96 -22 -215 -30 -265 -8 -49 -15 -112 -15 -140 0 -27 -7 -90 -15 -140 -7 -49 -17 -125 -21 -167 l-7 -77 34 -20 34 -21 -32 0 -33 0 0 -62 c0 -35 -4 -90 -10 -123 -18 -114 -41 -451 -50 -735 -5 -157 -12 -322 -16 -367 l-7 -83 41 0 c37 0 43 4 89 63 27 34 70 96 96 138 59 94 75 110 170 158 l77 39 53 -13 c76 -20 308 -72 408 -90 114 -22 133 -19 137 21 2 25 -11 50 -74 135 -43 57 -114 145 -157 194 -44 50 -106 124 -140 165 -99 124 -193 228 -338 372 -146 146 -145 146 51 15 102 -68 204 -142 412 -296 90 -66 103 -73 138 -69 l40 4 1 -41 c1 -38 6 -45 93 -124 98 -88 227 -216 392 -390 112 -117 151 -140 237 -141 48 0 57 3 57 18 0 10 11 56 24 102 42 145 62 314 87 735 14 241 2 984 -24 1460 l-12 220 -35 3 c-45 4 -137 -43 -200 -102 -46 -42 -169 -149 -204 -176 -14 -10 -6 10 23 65 176 332 224 438 260 579 17 63 29 88 62 125 61 67 91 90 117 91 13 0 42 9 65 19 54 24 68 27 135 22 46 -2 67 -11 114 -43z m5322 -274 c66 -32 143 -110 176 -179 20 -41 22 -55 15 -128 -6 -82 -6 -83 24 -121 27 -33 53 -99 62 -156 6 -36 -16 -121 -51 -197 -43 -92 -104 -163 -196 -229 -99 -71 -143 -85 -284 -94 -69 -5 -138 -14 -155 -20 l-30 -11 22 23 c60 65 208 359 258 513 56 170 44 245 -40 245 -48 0 -69 -27 -89 -118 -40 -179 -115 -393 -187 -533 -21 -42 -39 -90 -39 -108 0 -27 4 -31 26 -31 l26 0 -29 -23 c-69 -55 -64 -56 -57 5 3 29 1 79 -5 109 -10 45 -20 64 -57 100 -52 50 -115 167 -138 256 -19 74 -20 188 -2 265 35 146 127 235 279 269 44 9 63 19 75 38 89 146 251 196 396 125z m-1314 -33 c0 -25 -3 -28 -25 -23 -18 3 -25 11 -25 28 0 19 5 24 25 24 21 0 25 -5 25 -29z m-2175 -275 c39 -10 65 -22 75 -36 8 -12 32 -41 52 -64 l37 -42 -72 -82 c-100 -113 -227 -217 -432 -352 -166 -110 -296 -186 -361 -213 -32 -14 -113 -47 -179 -75 -164 -67 -517 -185 -647 -215 -60 -13 -108 -23 -108 -22 0 2 17 14 38 26 64 39 269 198 344 268 40 36 110 99 155 138 45 39 138 134 207 211 69 77 153 160 188 185 35 25 77 57 93 70 44 35 148 86 244 118 46 16 104 40 129 55 80 47 134 54 237 30z m-2906 -121 c43 -42 77 -89 112 -152 37 -68 56 -93 70 -93 15 0 19 -7 19 -37 0 -29 12 -52 62 -116 57 -74 142 -221 188 -327 11 -25 32 -67 46 -94 51 -98 48 -98 -79 -2 -67 50 -158 114 -202 141 -44 28 -102 65 -130 83 -27 18 -95 56 -149 84 -92 47 -106 51 -187 56 -78 4 -95 2 -153 -22 -62 -24 -106 -33 -106 -20 0 3 4 13 10 23 5 10 18 65 29 122 22 123 56 218 100 288 28 43 41 54 91 72 33 12 67 30 77 41 15 17 28 19 79 16 59 -4 63 -6 123 -63z m-4890 -204 c161 -82 266 -284 208 -400 -25 -50 -21 -83 17 -153 18 -35 39 -91 45 -126 11 -57 10 -69 -9 -125 -31 -92 -116 -196 -222 -272 -133 -96 -261 -138 -416 -136 -82 1 -97 -1 -135 -23 -89 -52 -106 -81 -143 -233 -100 -407 -155 -803 -169 -1215 -6 -177 -5 -188 12 -189 17 -1 17 -2 1 -6 -15 -4 -18 -17 -18 -91 1 -368 56 -877 131 -1216 11 -49 18 -93 16 -99 -5 -15 -54 212 -82 376 -43 257 -66 507 -73 787 -16 617 31 1082 165 1630 31 129 34 156 30 240 -6 113 -22 161 -79 236 -91 119 -109 149 -129 216 -14 45 -22 100 -23 156 -4 256 196 522 392 522 52 0 58 2 97 44 47 48 119 94 168 107 59 15 151 2 216 -30z m9981 28 c99 -23 259 -150 326 -260 47 -78 84 -181 84 -235 0 -24 6 -59 14 -77 15 -37 66 -91 111 -119 l30 -18 -37 0 c-20 0 -43 -3 -52 -6 -11 -4 -15 3 -18 31 l-3 37 -85 25 c-125 36 -350 127 -467 190 -92 49 -107 54 -155 51 l-53 -3 -3 -56 c-4 -69 4 -77 126 -129 170 -73 388 -131 554 -147 l73 -6 -45 -16 c-33 -12 -69 -40 -131 -103 -94 -97 -142 -124 -275 -158 -68 -18 -89 -19 -146 -10 -119 18 -208 60 -290 136 -45 42 -63 77 -81 156 -7 32 -17 50 -33 57 -44 20 -102 82 -125 134 -49 111 -22 229 79 335 75 79 119 97 231 95 89 -2 95 -1 130 26 45 35 75 51 126 67 50 16 59 16 115 3z m629 -594 c0 -5 -6 1 -14 15 -8 14 -14 30 -14 35 0 6 6 -1 14 -15 8 -14 14 -29 14 -35z m60 -127 c0 -30 -1 -31 -9 -10 -5 12 -14 22 -20 22 -5 0 -10 14 -10 30 l0 30 20 -20 c12 -12 20 -33 19 -52z m35 -108 c5 -17 4 -20 -2 -10 -5 8 -13 26 -16 40 -5 17 -4 20 2 10 5 -8 13 -26 16 -40z m62 -166 c189 -532 318 -1231 312 -1694 l-1 -125 -8 170 c-10 213 -38 507 -50 520 -5 5 -9 30 -9 55 0 53 -39 283 -76 448 -39 173 -97 378 -164 577 -33 99 -60 182 -60 184 0 16 15 -21 56 -135z m-5306 67 c79 -26 80 -27 109 -74 23 -37 23 -41 11 -115 -14 -85 -44 -175 -64 -191 -7 -6 -61 -26 -122 -45 -60 -19 -147 -51 -194 -71 -47 -20 -107 -45 -135 -54 -56 -20 -274 -65 -281 -58 -3 3 14 19 37 38 85 67 217 228 268 328 56 107 127 195 166 205 15 4 47 20 73 36 26 16 52 28 57 26 6 -2 39 -13 75 -25z m6332 15 c62 -15 161 -78 195 -124 64 -87 85 -177 59 -252 -20 -58 -20 -109 1 -151 22 -44 29 -137 13 -185 -18 -57 -77 -152 -130 -208 -65 -71 -146 -120 -259 -156 l-99 -32 -80 16 c-43 9 -112 16 -152 16 l-73 0 89 93 c177 183 339 426 351 525 8 72 -6 92 -67 92 -44 0 -52 -3 -73 -32 -13 -18 -36 -63 -51 -99 -43 -105 -204 -366 -285 -464 -30 -36 -41 -59 -41 -82 0 -31 2 -33 38 -34 l37 0 -54 -20 c-29 -10 -60 -24 -68 -30 -11 -10 -12 -8 -3 15 5 15 10 69 10 120 0 76 -4 98 -19 117 -78 100 -110 282 -76 428 21 89 89 214 138 257 51 43 148 74 232 74 50 0 65 4 81 21 40 44 98 83 143 95 59 16 74 16 143 0z m-1268 -390 c100 -58 197 -171 252 -291 35 -76 51 -175 46 -276 -5 -92 8 -131 62 -196 l26 -30 -93 -5 c-101 -5 -141 -20 -224 -84 -77 -59 -120 -75 -224 -87 -93 -10 -99 -10 -183 17 -204 67 -336 213 -336 372 0 33 -7 48 -35 79 -58 60 -79 111 -80 185 0 57 5 73 37 131 66 118 172 189 278 189 30 -1 66 -7 80 -15 36 -21 95 -18 143 7 23 12 56 25 72 29 51 14 133 2 179 -25z m-12086 -591 c28 -9 65 -27 82 -42 30 -25 33 -26 135 -19 74 5 116 4 147 -6 62 -18 153 -113 200 -208 73 -149 86 -267 43 -396 -30 -89 -32 -172 -6 -229 l18 -40 -131 0 c-124 -1 -136 -3 -222 -35 l-90 -34 -85 17 c-174 34 -319 139 -389 280 -34 69 -33 65 -14 208 5 40 2 53 -22 88 -105 159 43 389 277 430 3 1 28 -6 57 -14z m1594 -179 c110 -39 198 -132 222 -233 12 -55 12 -66 -3 -111 -10 -28 -30 -67 -45 -87 -26 -33 -28 -43 -23 -91 18 -177 -158 -355 -391 -394 -91 -15 -137 -5 -242 52 -73 41 -78 42 -187 46 l-113 4 19 27 c44 63 51 132 25 236 -21 84 -7 175 45 282 97 200 240 295 371 249 58 -20 113 -20 153 1 68 35 111 40 169 19z m11921 -354 c186 -618 306 -1464 267 -1897 -20 -228 -49 -456 -77 -590 l-26 -130 -38 3 -37 4 -145 -220 c-157 -239 -339 -492 -482 -672 -96 -121 -423 -497 -469 -539 -19 -18 -26 -34 -26 -63 0 -37 1 -38 34 -38 32 0 52 17 224 188 380 377 598 666 860 1142 23 41 42 72 42 69 0 -16 -81 -244 -120 -334 -72 -171 -221 -431 -333 -585 -230 -315 -551 -641 -862 -874 -110 -83 -281 -196 -296 -196 -4 0 -10 89 -13 198 -13 399 -31 622 -87 1087 -77 633 -62 942 67 1333 99 303 253 562 546 921 78 95 76 86 87 356 l8 190 1 -177 2 -178 34 0 c31 0 43 10 130 109 151 173 258 310 346 443 80 121 267 483 292 566 7 23 15 42 18 42 3 0 26 -71 53 -158z m-11896 -962 c18 -5 59 -27 93 -51 50 -35 66 -54 95 -112 38 -76 43 -118 20 -174 -19 -46 -19 -98 1 -157 35 -102 -6 -210 -124 -325 -63 -63 -91 -82 -155 -109 -111 -46 -156 -53 -230 -34 -84 20 -240 20 -290 -1 -38 -16 -38 -16 -30 6 4 12 8 58 8 102 0 71 -3 85 -27 120 -31 45 -58 158 -58 238 0 96 43 214 108 299 53 70 120 100 231 106 83 4 87 6 127 42 37 34 72 51 129 63 21 4 46 1 102 -13z m-1198 -261 c110 -63 219 -199 263 -327 19 -55 23 -88 23 -187 0 -128 6 -149 59 -212 l25 -30 -78 -6 c-92 -6 -140 -25 -236 -94 -79 -57 -111 -70 -207 -83 -55 -8 -79 -6 -143 10 -206 53 -339 182 -352 342 -5 56 -10 68 -43 103 -57 61 -74 100 -75 175 0 80 29 144 95 211 87 87 221 127 286 85 33 -22 88 -20 137 6 90 49 170 51 246 7z m496 -746 c11 -3 15 -21 15 -55 0 -50 43 -213 100 -382 16 -49 28 -91 26 -93 -5 -6 -76 210 -121 367 -19 69 -40 127 -45 128 -6 2 -10 27 -9 55 1 50 1 51 10 19 6 -18 16 -35 24 -39z m1100 -308 c62 -32 113 -82 147 -147 17 -34 22 -57 20 -114 -1 -66 1 -75 28 -109 32 -41 60 -120 60 -169 -1 -43 -42 -157 -82 -223 -40 -66 -127 -141 -222 -188 -55 -28 -81 -35 -130 -35 -33 -1 -81 -5 -106 -10 -25 -4 -46 -7 -48 -5 -1 1 22 49 52 106 138 262 210 514 160 563 -19 20 -88 21 -107 2 -7 -8 -23 -63 -35 -123 -25 -126 -99 -364 -142 -455 -35 -73 -39 -125 -12 -130 15 -2 13 -7 -13 -29 l-30 -26 -1 71 c-1 82 -17 121 -67 159 -34 26 -103 144 -126 218 -38 117 -31 229 20 330 41 83 109 132 216 159 32 8 47 18 58 41 20 38 92 108 125 121 86 35 156 33 235 -7z m-911 -345 c5 -20 3 -19 -8 5 -7 17 -16 41 -20 55 -5 20 -3 19 8 -5 7 -16 16 -41 20 -55z m60 -149 c14 -35 24 -66 22 -68 -3 -4 -56 121 -56 134 0 13 9 -4 34 -66z m-279 -95 c83 -39 188 -125 239 -195 51 -71 93 -171 102 -238 6 -52 12 -63 53 -103 25 -25 57 -53 71 -62 l25 -17 -32 0 c-17 -1 -38 -4 -47 -7 -13 -5 -16 1 -16 29 0 35 -1 36 -47 42 -116 16 -406 111 -531 174 -70 35 -149 42 -176 15 -24 -23 -20 -77 7 -106 25 -27 155 -78 277 -109 75 -19 242 -43 374 -55 l69 -6 -33 -16 c-36 -17 -64 -45 -132 -132 -35 -45 -61 -64 -135 -101 -50 -25 -116 -51 -147 -57 -123 -25 -295 25 -385 111 -43 41 -91 125 -91 159 0 10 -15 25 -32 34 -65 33 -98 67 -129 130 -44 89 -44 149 -1 236 64 131 179 205 296 192 48 -6 54 -4 101 34 126 100 190 109 320 48z m10062 -166 c153 -10 294 -37 398 -75 135 -49 286 -151 340 -230 113 -165 173 -482 216 -1147 29 -461 -20 -652 -192 -739 -135 -68 -280 -89 -610 -89 -465 0 -859 61 -995 155 -101 70 -219 225 -294 388 -98 214 -158 484 -194 867 -9 91 -25 263 -37 383 -18 195 -38 352 -55 430 l-6 27 130 0 c118 0 235 4 877 29 105 4 210 9 235 9 25 1 109 -3 187 -8z m-9593 -157 c31 -62 54 -113 51 -113 -5 0 -115 216 -115 227 0 12 7 -1 64 -114z m1273 -104 c95 -59 143 -123 164 -218 8 -40 18 -57 50 -82 81 -64 125 -184 110 -295 -28 -194 -189 -388 -352 -423 -54 -12 -102 -34 -133 -60 -11 -9 -16 -10 -12 -3 15 25 57 199 76 312 21 119 28 382 11 408 -5 9 -26 12 -67 10 l-59 -3 0 -185 c0 -205 -10 -340 -31 -443 -8 -38 -14 -82 -14 -98 0 -26 3 -29 31 -29 l30 0 -28 -39 c-15 -22 -29 -38 -31 -37 -1 2 -9 29 -17 61 -20 75 -46 110 -105 140 -27 14 -74 53 -109 92 -134 148 -195 368 -134 487 26 51 116 140 163 161 28 13 40 24 40 39 0 34 55 120 104 163 84 74 230 93 313 42z m-1117 -159 c0 -24 -3 -27 -25 -22 -19 3 -25 10 -25 32 0 24 3 27 25 22 19 -3 25 -10 25 -32z m103 -706 c140 -36 252 -109 347 -227 28 -34 55 -78 60 -97 17 -64 112 -129 190 -130 l35 -1 -45 -24 c-56 -30 -60 -30 -60 -2 l0 22 -247 0 c-193 0 -274 4 -365 19 -141 22 -205 17 -214 -18 -10 -41 0 -78 26 -98 38 -28 256 -43 419 -28 139 12 319 38 334 47 5 3 -7 -18 -26 -46 -20 -28 -41 -68 -47 -88 -7 -21 -28 -66 -48 -100 -54 -95 -201 -195 -335 -229 -160 -42 -341 23 -418 150 -12 20 -34 34 -74 48 -112 38 -164 88 -207 202 -25 65 -24 119 2 189 43 115 139 199 244 213 39 6 50 12 62 37 9 16 34 49 56 73 91 98 177 123 311 88z m1864 -55 c67 -26 144 -97 164 -153 11 -31 24 -42 67 -63 75 -35 145 -109 172 -180 53 -140 50 -233 -12 -377 -39 -92 -86 -150 -165 -201 -72 -47 -110 -81 -134 -120 l-19 -30 0 140 c0 77 -5 183 -10 235 -12 112 -52 295 -76 345 -16 34 -18 35 -74 35 -44 0 -59 -4 -64 -16 -13 -34 -4 -89 33 -201 46 -139 86 -309 103 -445 l12 -98 33 0 c38 0 39 -8 14 -64 l-17 -38 -24 53 c-28 60 -87 109 -131 109 -35 0 -144 57 -212 110 -103 81 -200 241 -213 351 -5 46 -2 63 22 112 15 33 49 83 76 112 45 50 48 56 48 107 0 125 119 261 251 287 70 14 95 12 156 -10z m-1127 -374 c0 -21 -5 -25 -30 -25 -25 0 -30 4 -30 25 0 21 5 25 30 25 25 0 30 -4 30 -25z m2178 -287 c23 -11 64 -44 90 -74 34 -39 54 -54 73 -54 79 0 182 -66 241 -152 80 -119 107 -237 83 -363 -21 -109 -53 -172 -133 -258 -75 -82 -98 -130 -109 -229 l-6 -56 -24 29 c-14 16 -45 43 -68 59 -37 26 -53 30 -107 30 -111 0 -257 57 -354 137 -77 64 -146 156 -174 231 -20 52 -21 62 -9 115 6 32 27 84 46 115 31 51 34 62 28 107 -3 28 -7 70 -8 95 -4 111 116 243 263 291 36 12 118 0 168 -23z m1247 -412 c28 -13 64 -35 79 -50 25 -22 38 -26 92 -26 98 0 166 -30 245 -109 47 -48 76 -87 102 -143 82 -172 77 -297 -17 -456 -26 -42 -51 -95 -57 -117 -16 -60 -8 -241 12 -261 14 -13 61 -16 325 -21 297 -5 443 0 759 29 l130 11 120 116 c356 344 612 520 940 643 254 95 570 169 889 208 382 47 934 62 1361 39 137 -8 367 -14 511 -14 l261 0 -26 -35 c-180 -246 -334 -424 -585 -676 -350 -349 -679 -605 -1056 -821 -103 -59 -193 -105 -156 -81 426 290 642 476 933 808 130 149 153 180 153 207 0 31 -2 33 -37 33 -35 0 -49 -12 -218 -178 -237 -234 -351 -340 -520 -482 -136 -114 -404 -322 -498 -387 -41 -28 -47 -37 -47 -67 0 -24 5 -36 17 -38 39 -7 -411 -176 -595 -222 -460 -116 -835 -124 -1442 -30 -450 69 -720 104 -817 104 -28 0 -54 4 -58 9 -3 5 59 68 137 139 79 71 257 241 396 377 245 241 253 250 250 284 l-3 36 -50 -1 c-27 0 -108 -6 -178 -12 -212 -20 -737 -15 -982 8 -234 22 -508 63 -723 109 -189 41 -541 137 -510 140 3 1 71 -17 150 -38 309 -85 600 -143 910 -181 234 -28 220 -30 216 27 -3 44 -5 48 -48 69 -64 33 -106 39 -164 24 -160 -42 -368 32 -510 180 -61 65 -78 89 -91 135 -19 63 -14 115 16 182 25 55 24 93 -3 145 -70 134 36 330 212 391 64 23 117 20 175 -7z m-2972 -20 c86 -17 132 -35 202 -79 81 -51 125 -89 157 -135 41 -59 90 -82 177 -82 l70 0 -47 -44 c-46 -44 -47 -44 -50 -20 -3 21 -8 24 -46 24 -23 0 -69 -9 -102 -20 -93 -30 -357 -78 -492 -88 -68 -6 -129 -15 -137 -22 -20 -17 -20 -94 0 -110 61 -51 359 4 642 118 l123 49 -19 -31 c-11 -17 -27 -73 -36 -125 -22 -127 -51 -182 -151 -283 -36 -36 -85 -72 -133 -96 -177 -90 -318 -81 -438 29 -38 35 -48 39 -95 39 -69 1 -130 29 -191 88 -76 74 -114 167 -102 251 15 111 103 228 188 252 30 8 38 17 58 65 25 64 82 140 132 178 36 28 122 54 179 55 20 1 70 -5 111 -13z m697 -236 c0 -10 8 -24 18 -29 13 -8 9 -10 -24 -11 -39 0 -42 2 -46 30 -4 27 -2 30 24 30 21 0 28 -5 28 -20z m390 -245 c0 -3 -18 4 -40 15 -22 11 -40 23 -40 25 0 3 18 -4 40 -15 22 -11 40 -23 40 -25z m300 -145 c19 -11 31 -19 25 -19 -5 0 -26 8 -45 19 -19 11 -30 19 -25 19 6 0 26 -8 45 -19z m29 -150 c89 -25 158 -59 223 -110 54 -44 106 -56 194 -47 30 3 54 3 54 0 0 -3 -9 -18 -20 -33 -11 -15 -24 -38 -29 -51 -9 -23 -10 -22 -10 9 -1 31 -3 32 -42 32 -29 0 -53 -9 -86 -31 -73 -51 -348 -174 -475 -214 -126 -39 -148 -55 -148 -110 0 -17 6 -39 13 -50 22 -30 131 -16 242 31 129 54 341 181 453 271 l42 34 -10 -27 c-6 -15 -9 -85 -8 -158 l3 -131 -49 -100 c-77 -158 -189 -254 -363 -310 -67 -22 -123 -14 -201 26 -55 29 -60 30 -147 24 -77 -6 -97 -4 -135 13 -160 69 -253 248 -205 394 14 41 33 68 85 119 63 62 67 69 73 121 11 114 85 220 183 265 117 53 246 65 363 33z m489 -48 c39 -3 60 -11 77 -28 l24 -24 -27 0 c-15 0 -38 -7 -50 -16 -21 -15 -22 -14 -22 16 0 24 -6 33 -27 40 -16 6 -37 15 -48 20 l-20 11 20 -7 c11 -4 44 -9 73 -12z m163 -67 c19 -8 27 -14 19 -14 -18 0 -79 27 -64 28 7 1 27 -6 45 -14z m859 -305 c50 -11 119 -35 156 -55 74 -39 136 -45 216 -21 l45 13 -20 -51 c-27 -68 -29 -204 -4 -303 23 -86 14 -144 -39 -267 -54 -125 -141 -215 -280 -285 -74 -37 -146 -41 -213 -11 -52 24 -92 25 -133 4 -17 -9 -56 -18 -87 -20 -49 -4 -65 0 -131 33 -56 29 -84 50 -112 88 -101 134 -103 285 -4 390 32 33 33 39 38 127 9 160 64 241 214 313 59 29 182 61 247 64 9 1 58 -8 107 -19z"></path><path id="phLwgfv6L" d="M8520 14710 l0 -60 89 -93 c100 -105 248 -300 301 -397 33 -61 38 -65 74 -68 l39 -3 -6 47 c-6 53 -122 298 -188 397 -61 90 -138 188 -168 214 -20 18 -38 23 -83 23 l-58 0 0 -60z"></path><path id="p1BQ4xzs5v" d="M6713 14684 c-17 -7 -16 -94 0 -116 8 -9 49 -38 93 -63 122 -72 328 -231 414 -319 35 -36 51 -46 77 -46 32 0 33 2 33 39 0 33 -9 51 -52 103 -87 106 -258 270 -352 338 -82 58 -95 64 -145 67 -31 1 -62 0 -68 -3z"></path><path id="p5NeQQE1u" d="M5870 13646 c-210 -82 -499 -249 -598 -345 -39 -38 -42 -45 -42 -96 0 -61 13 -75 72 -75 41 0 94 31 161 96 99 95 364 279 492 341 74 35 75 36 75 74 0 38 -1 39 -37 39 -21 -1 -76 -16 -123 -34z"></path><path id="pGNang7k0" d="M7306 13763 c-41 -81 -195 -290 -288 -390 l-89 -95 3 -57 3 -56 54 -3 c53 -3 54 -3 101 47 119 127 310 470 310 557 0 44 0 44 -35 44 -31 0 -37 -5 -59 -47z"></path><path id="p14bpzrgoF" d="M8860 13740 c-39 -55 -319 -280 -396 -318 -23 -12 -56 -33 -73 -48 -29 -24 -32 -31 -29 -78 l3 -51 58 -3 c57 -3 60 -2 140 55 86 61 258 226 345 331 43 52 52 70 52 103 0 39 0 39 -39 39 -33 0 -43 -5 -61 -30z"></path><path id="p7lMClkIh" d="M8995 9910 c-4 -6 -2 -59 4 -118 6 -59 16 -173 21 -255 6 -81 17 -189 25 -240 21 -129 19 -152 -14 -211 -53 -91 -132 -152 -326 -252 -100 -51 -100 -51 -103 -91 l-3 -40 68 -11 c37 -6 109 -14 158 -17 50 -3 182 -12 295 -21 113 -8 228 -12 257 -8 62 7 108 34 131 75 9 17 63 95 120 175 83 117 102 150 102 179 0 33 -2 35 -34 35 -26 0 -47 -11 -88 -45 l-53 -44 -6 67 c-9 97 -53 201 -187 437 -49 86 -91 144 -215 298 -71 88 -82 97 -112 97 -19 0 -37 -5 -40 -10z"></path><path id="p17whp9UpH" d="M5420 8877 l-55 -12 1 -75 c1 -41 3 -192 5 -335 l4 -260 63 2 c67 3 118 -16 207 -77 131 -90 328 -146 530 -152 l100 -3 0 386 0 386 -95 17 c-52 9 -124 25 -160 36 -309 88 -365 100 -455 99 -49 0 -115 -6 -145 -12z"></path><path id="p15PE9J7JW" d="M8520 8287 c0 -19 19 -80 41 -134 38 -89 80 -214 123 -365 l17 -58 69 0 c53 0 74 4 88 18 32 32 138 187 195 284 49 82 57 104 57 146 l0 50 -37 5 c-21 2 -117 20 -214 40 -97 20 -212 39 -257 43 l-82 7 0 -36z"></path><path id="pVmEVX6gL" d="M5430 7782 l-45 -7 0 -42 c1 -24 2 -162 3 -308 l2 -265 28 -11 c33 -13 241 -79 372 -119 149 -45 288 -80 315 -80 40 0 134 40 146 62 7 12 13 132 16 309 5 242 4 289 -8 293 -8 2 -45 11 -84 20 -38 9 -126 34 -195 57 -214 69 -298 89 -405 93 -55 3 -120 1 -145 -2z"></path><path id="p48JY6bR8" d="M2672 10553 c-51 -10 -179 -226 -278 -468 -67 -167 -94 -255 -94 -313 l0 -43 37 3 c35 3 37 5 69 83 52 129 197 374 309 520 63 83 65 88 65 143 0 32 -5 63 -12 70 -12 12 -50 14 -96 5z"></path><path id="p12dNNJEX8" d="M13052 9368 c-7 -7 -12 -35 -12 -63 0 -45 4 -55 33 -82 116 -110 493 -299 619 -311 l58 -5 0 37 c0 34 -2 37 -65 65 -119 54 -348 204 -430 281 -65 61 -114 90 -154 90 -21 0 -42 -5 -49 -12z"></path><path id="ppCZIFVVm" d="M1347 8763 c-4 -3 -7 -32 -7 -63 0 -48 5 -64 30 -99 115 -158 442 -431 517 -431 32 0 33 2 33 39 0 35 -5 43 -48 75 -76 59 -275 280 -335 373 -14 23 -40 58 -58 77 -27 32 -37 36 -78 36 -26 0 -51 -3 -54 -7z"></path><path id="p10fEJEWD5" d="M2652 8540 c-81 -89 -288 -268 -369 -319 -47 -29 -53 -37 -53 -67 0 -33 1 -34 40 -34 45 0 67 10 180 78 174 104 349 242 378 298 7 14 12 46 10 72 l-3 47 -55 3 -55 3 -73 -81z"></path><path id="pWilrIcYm" d="M14737 8268 c-10 -62 -24 -144 -32 -183 -7 -38 -32 -167 -55 -285 -69 -358 -174 -830 -247 -1105 -25 -93 -54 -208 -64 -254 -10 -46 -34 -134 -53 -195 -18 -61 -43 -147 -55 -191 -13 -44 -31 -107 -41 -140 -74 -238 -143 -449 -205 -625 -40 -113 -89 -254 -108 -315 -50 -151 -159 -428 -152 -385 14 94 25 314 25 504 -1 382 -48 723 -167 1199 l-47 187 -33 0 c-31 0 -33 -2 -33 -37 0 -21 15 -130 34 -243 101 -605 132 -911 143 -1402 l6 -288 24 0 c29 0 29 -2 -34 -150 -76 -177 -113 -279 -113 -310 0 -28 2 -30 38 -29 l37 0 52 107 c29 59 69 141 88 182 35 73 218 499 288 670 43 104 181 489 201 562 8 29 34 112 56 183 151 473 311 1145 410 1720 23 132 50 292 61 355 22 130 59 460 59 533 0 47 0 47 -33 47 l-33 0 -17 -112z"></path><path id="p1Hf2r6jQE" d="M14030 7193 c0 -27 9 -136 20 -243 25 -246 28 -700 5 -890 -8 -69 -15 -151 -15 -182 l0 -58 34 0 c39 0 38 -2 60 110 41 206 50 304 49 550 0 257 -13 382 -65 648 l-22 112 -33 0 c-33 0 -33 0 -33 -47z"></path><path id="plnzbRmyx" d="M15007 6913 c-8 -21 -33 -76 -55 -123 -22 -47 -53 -115 -69 -151 -88 -193 -300 -543 -462 -759 -58 -78 -71 -102 -71 -132 0 -36 1 -38 34 -38 30 0 43 10 123 103 111 126 224 278 293 391 124 206 290 610 290 706 0 39 -1 40 -34 40 -30 0 -36 -5 -49 -37z"></path><path id="pZNbh0iw4" d="M2732 7226 c-17 -30 -32 -58 -32 -63 0 -30 -156 -263 -247 -370 -43 -49 -53 -68 -53 -97 0 -35 1 -36 36 -36 32 0 47 10 117 78 166 160 323 376 334 460 8 63 -8 82 -70 82 l-52 0 -33 -54z"></path><path id="p7rWpwIcb" d="M1392 7028 c-22 -22 -14 -94 13 -126 77 -92 486 -296 618 -309 l57 -6 0 36 c0 34 -3 36 -66 66 -121 57 -329 191 -421 272 -32 28 -72 58 -90 65 -40 17 -95 18 -111 2z"></path><path id="p1GqSCDYHY" d="M11020 5345 c0 -50 73 -136 380 -448 420 -428 824 -805 1176 -1097 23 -19 93 -78 156 -130 161 -136 196 -160 235 -160 31 0 33 2 33 34 0 32 -10 44 -137 154 -135 116 -343 307 -393 360 -25 26 -172 168 -713 682 -711 678 -669 640 -704 640 -31 0 -33 -2 -33 -35z"></path><path id="pABL47RFg" d="M12516 5058 c-4 -167 -14 -391 -22 -498 -8 -107 -17 -243 -21 -302 l-6 -108 35 0 36 0 12 68 c32 185 42 305 47 589 3 166 2 359 -2 428 l-7 125 -32 0 -33 0 -7 -302z"></path><path id="p15OqZIGOL" d="M13056 4768 c-11 -264 -55 -766 -76 -879 -6 -28 -10 -65 -10 -80 0 -27 3 -29 39 -29 35 0 39 3 44 29 17 81 57 348 66 436 15 140 30 560 22 620 -6 49 -7 50 -42 53 l-36 3 -7 -153z"></path><path id="pxORtfLQc" d="M11110 4237 c0 -34 1 -35 73 -61 165 -59 341 -107 515 -141 181 -35 435 -75 476 -75 35 0 36 1 36 39 l0 39 -97 16 c-181 32 -476 97 -693 153 -118 31 -236 58 -262 60 l-48 5 0 -35z"></path><path id="pD6Og6woO" d="M11410 3612 c0 -33 4 -41 23 -45 33 -9 453 -55 600 -67 121 -9 526 -6 685 6 l72 6 0 32 0 33 -272 6 c-405 10 -666 26 -1050 64 l-58 6 0 -41z"></path><path id="pcRHc2qaU" d="M5756 3314 c-3 -9 -6 -35 -6 -58 0 -35 11 -59 61 -137 70 -108 195 -362 228 -461 22 -66 23 -68 57 -68 34 0 34 0 34 48 0 133 -145 538 -237 660 -22 29 -29 32 -77 32 -40 0 -55 -4 -60 -16z"></path><path id="p4flygUcu" d="M7046 2904 c-23 -59 1 -106 107 -209 70 -68 258 -313 302 -393 25 -47 32 -52 62 -52 33 0 33 1 33 45 0 37 -13 72 -68 178 -38 73 -86 159 -107 192 -51 80 -174 234 -196 246 -31 16 -126 11 -133 -7z"></path><path id="p14jCrS9fx" d="M12283 2811 l-153 -78 0 35 0 35 -97 -6 c-54 -3 -177 -11 -273 -18 -355 -23 -903 -3 -1384 52 -98 11 -185 18 -192 15 -8 -3 -14 -20 -14 -39 l0 -34 133 -26 c407 -80 531 -92 957 -91 209 0 412 6 475 13 114 12 338 46 371 56 77 23 -464 -230 -801 -375 -417 -179 -481 -205 -730 -295 -132 -47 -287 -103 -345 -124 -58 -22 -157 -55 -220 -74 -63 -19 -196 -60 -295 -92 -351 -110 -601 -176 -980 -259 -115 -26 -218 -51 -227 -56 -10 -6 -27 -10 -38 -10 -16 0 -20 -7 -20 -35 0 -35 1 -35 43 -35 89 0 661 105 957 176 386 93 969 279 1315 419 448 183 1134 509 1470 700 275 157 265 149 265 190 0 33 -2 35 -32 35 -21 0 -89 -30 -185 -79z"></path><path id="pGX93pLxj" d="M10697 2254 c-258 -43 -953 -63 -1394 -40 l-173 9 0 -35 c0 -36 0 -36 53 -42 74 -9 368 -35 522 -46 341 -24 723 4 1103 82 l102 21 0 33 0 34 -67 -1 c-38 -1 -103 -7 -146 -15z"></path><path id="p10EbKrflM" d="M10843 1947 c-351 -296 -610 -471 -1060 -717 -37 -21 -43 -28 -43 -57 0 -32 1 -33 40 -33 76 0 445 178 660 317 140 92 267 198 423 355 132 134 147 153 147 184 0 32 -2 34 -34 34 -28 0 -51 -14 -133 -83z"></path><path id="prO2hCbRV" d="M7364 1919 c-55 -62 -326 -245 -464 -314 -100 -50 -130 -78 -130 -125 0 -142 206 -61 499 195 128 111 191 188 191 231 0 33 -1 34 -38 34 -27 0 -45 -7 -58 -21z"></path></g></g><g id="l4QPunSavrwobNIu8IiJNL6" fill="rgb(10,9,10)" style="transform: none;"><g style="transform: none;"><path id="p7uOGdxVr" d="M8431 15170 c-107 -23 -215 -127 -255 -244 -25 -77 -17 -174 20 -229 10 -15 8 -31 -12 -88 -43 -122 -27 -228 48 -326 122 -159 366 -257 557 -222 61 10 75 10 113 -5 40 -15 108 -67 108 -82 0 -4 -15 -4 -32 0 -53 11 -361 44 -519 57 -141 11 -767 6 -937 -7 l-72 -6 -32 67 c-38 83 -49 171 -30 247 48 189 46 174 28 264 -22 113 -48 180 -96 245 -53 70 -141 146 -206 176 -67 31 -183 41 -242 20 -40 -14 -45 -13 -104 10 -75 31 -131 32 -219 4 -58 -18 -75 -30 -125 -84 -72 -76 -104 -157 -104 -257 0 -71 29 -149 70 -190 20 -20 22 -32 21 -106 -5 -201 93 -314 329 -384 129 -38 303 -27 399 26 58 32 117 31 192 -2 33 -15 59 -30 59 -34 0 -9 -5 -10 -225 -40 -294 -41 -549 -97 -887 -196 -115 -33 -206 -54 -236 -54 -76 0 -169 34 -237 86 -85 64 -128 84 -214 100 -212 38 -406 -13 -560 -146 -95 -81 -142 -172 -146 -279 -3 -71 -6 -79 -37 -112 -18 -19 -46 -60 -63 -90 -28 -50 -30 -61 -30 -159 0 -99 2 -109 34 -173 42 -83 120 -158 211 -201 57 -27 76 -31 150 -31 70 0 93 4 129 23 l44 23 60 -27 c35 -15 91 -30 134 -35 115 -13 163 0 259 67 79 56 141 125 198 222 68 117 89 205 90 382 1 118 5 152 19 180 26 51 62 89 100 105 44 18 362 109 473 135 256 60 719 139 733 124 10 -10 -62 -62 -106 -78 -31 -11 -52 -12 -75 -5 -86 24 -249 -1 -359 -57 -88 -43 -203 -154 -237 -226 -29 -62 -30 -157 -2 -230 22 -59 25 -89 10 -104 -5 -5 -15 -36 -21 -67 -14 -80 2 -150 52 -225 68 -102 163 -152 285 -152 69 0 132 24 191 74 24 20 37 24 65 19 62 -10 160 30 228 93 74 69 112 128 146 229 24 73 26 89 21 183 -6 112 -20 152 -94 266 -36 56 -38 64 -41 150 -2 50 1 103 6 117 10 25 13 26 159 37 374 29 641 25 1052 -18 373 -39 369 -38 287 -77 -74 -37 -108 -38 -171 -9 -51 23 -109 36 -215 49 -60 8 -190 -23 -280 -64 -157 -74 -215 -165 -209 -329 3 -69 1 -82 -18 -102 -11 -13 -31 -43 -44 -68 -50 -99 -17 -266 73 -357 91 -92 238 -125 341 -74 44 21 52 22 93 11 71 -20 180 -9 244 26 80 43 181 146 218 224 68 140 79 248 38 374 -36 109 -35 177 5 266 27 59 35 70 56 70 69 0 443 -89 691 -165 291 -88 681 -240 664 -257 -13 -13 -106 -21 -146 -14 -20 4 -56 24 -82 47 -97 83 -226 129 -365 129 -146 0 -258 -37 -317 -105 -37 -41 -82 -126 -82 -152 0 -34 -21 -93 -33 -93 -23 -1 -66 -45 -101 -104 -34 -56 -36 -65 -36 -147 0 -136 41 -223 135 -286 70 -46 128 -61 203 -52 45 5 62 3 82 -11 82 -57 186 -72 286 -41 131 40 235 117 302 225 67 105 74 129 77 256 1 63 7 129 13 147 12 38 47 91 95 143 l37 39 77 -36 c43 -20 137 -67 208 -106 339 -182 495 -281 818 -520 160 -118 169 -135 68 -121 -68 9 -121 41 -158 98 -40 62 -74 97 -145 153 -137 106 -332 146 -490 103 -52 -15 -139 -97 -176 -168 -29 -53 -36 -60 -70 -66 -87 -13 -177 -117 -206 -238 -15 -60 -15 -73 -2 -139 18 -83 71 -173 123 -209 37 -25 134 -60 168 -60 14 0 30 -13 46 -37 15 -23 48 -50 89 -72 64 -36 66 -36 185 -36 108 0 127 3 193 29 127 49 237 145 288 251 19 38 34 77 34 85 0 38 34 112 71 154 39 44 144 116 169 116 39 0 538 -476 713 -680 94 -110 297 -364 297 -372 0 -14 -29 -8 -87 18 -77 33 -109 67 -127 129 -19 62 -81 160 -139 219 -52 52 -160 117 -242 147 -43 16 -85 22 -145 23 -74 1 -91 -3 -135 -26 -52 -28 -109 -76 -137 -117 -14 -20 -30 -26 -83 -32 -112 -14 -185 -71 -244 -191 -27 -55 -32 -76 -33 -144 -1 -146 60 -246 187 -305 52 -25 65 -36 80 -70 29 -64 115 -135 191 -159 148 -45 283 -35 422 32 105 51 176 119 230 219 59 110 123 160 244 192 l56 14 72 -104 c206 -299 372 -595 536 -955 34 -76 57 -138 51 -138 -19 0 -69 34 -106 71 -43 42 -61 85 -60 140 2 96 -82 259 -183 355 -181 173 -364 200 -524 78 -34 -26 -43 -28 -133 -29 -81 0 -103 -4 -141 -24 -60 -31 -133 -109 -167 -179 -24 -50 -28 -69 -28 -147 0 -73 5 -100 24 -142 23 -53 81 -114 125 -135 17 -7 26 -22 30 -50 4 -22 13 -53 21 -69 15 -28 15 -28 -21 -35 -20 -4 -138 -3 -263 0 -214 7 -233 6 -361 -17 -363 -67 -648 -74 -815 -22 -107 34 -187 41 -269 24 -57 -11 -66 -17 -147 -98 -207 -207 -424 -449 -485 -543 -36 -54 -69 -98 -74 -98 -4 0 -19 19 -33 43 -47 79 -165 182 -361 313 -38 26 -252 138 -408 215 l-118 58 0 60 0 59 48 7 c106 15 308 69 492 132 172 58 250 88 494 190 68 28 199 106 373 221 132 88 169 115 284 210 75 62 208 207 221 242 5 13 -7 33 -43 71 -27 30 -58 64 -68 75 -23 28 -135 49 -228 42 -55 -4 -83 -13 -134 -40 -35 -20 -95 -46 -134 -58 -83 -27 -198 -83 -240 -117 -16 -13 -58 -45 -93 -70 -35 -25 -119 -108 -188 -185 -69 -77 -162 -172 -207 -211 -45 -39 -115 -102 -155 -138 -103 -96 -389 -309 -413 -309 -10 0 1 733 13 825 8 63 13 216 13 411 l0 311 -38 56 c-26 41 -57 69 -105 100 -67 43 -67 43 -157 42 -70 -1 -100 -6 -137 -23 -26 -12 -57 -22 -70 -22 -26 -1 -56 -24 -117 -91 -33 -37 -45 -62 -62 -125 -29 -111 -77 -228 -159 -384 -39 -74 -94 -183 -123 -242 -29 -59 -57 -108 -64 -108 -6 0 -34 42 -62 93 -35 64 -69 110 -112 152 l-63 60 -89 4 c-78 3 -91 1 -110 -17 -12 -11 -48 -30 -79 -42 -47 -18 -62 -29 -89 -71 -44 -69 -78 -164 -100 -284 -10 -55 -28 -121 -40 -147 -32 -68 -23 -81 48 -72 32 3 86 18 121 32 91 36 153 28 280 -38 53 -27 120 -64 147 -82 28 -18 86 -55 130 -83 68 -42 128 -85 359 -261 23 -17 47 -38 55 -47 7 -10 19 -17 27 -17 9 0 6 16 -12 58 -37 83 -121 259 -151 317 -14 28 -45 86 -68 131 -22 44 -69 117 -103 161 -34 44 -62 85 -62 91 0 6 26 32 58 59 116 97 198 168 242 209 46 43 156 107 170 99 7 -4 30 -456 35 -680 1 -71 6 -267 10 -435 13 -492 -25 -1014 -91 -1240 -13 -46 -24 -92 -24 -102 0 -13 -8 -18 -27 -18 -54 1 -108 37 -207 141 -165 174 -294 302 -392 390 -51 46 -93 89 -93 94 -1 6 54 21 121 34 130 25 175 39 308 96 47 20 134 52 194 71 59 19 113 37 118 40 30 19 78 198 78 293 0 41 -28 105 -54 123 -22 15 -162 58 -190 58 -16 0 -51 -13 -77 -30 -27 -16 -60 -32 -74 -36 -39 -10 -111 -98 -166 -205 -64 -124 -234 -318 -327 -373 -7 -4 -50 21 -111 66 -246 183 -319 233 -506 356 -110 72 -208 137 -217 144 -15 11 -16 22 -9 78 5 36 14 110 21 165 6 55 19 170 30 255 11 85 22 196 25 245 3 50 10 126 15 170 5 44 12 109 15 145 3 36 12 124 21 195 10 72 19 167 21 212 4 78 3 86 -28 144 -40 74 -68 103 -143 148 -54 32 -61 34 -159 35 l-102 1 -95 -49 c-52 -27 -115 -56 -139 -65 l-44 -16 -39 -110 c-22 -61 -45 -130 -53 -155 -39 -130 -265 -562 -426 -816 -58 -91 -53 -95 43 -31 35 23 110 71 166 107 56 36 140 89 185 119 98 65 143 85 152 70 7 -10 -1 -1170 -10 -1569 l-5 -195 -92 1 c-124 1 -259 32 -388 89 -190 84 -219 95 -259 95 -49 0 -99 -39 -126 -100 -10 -22 -21 -40 -25 -40 -12 0 -20 28 -20 64 0 102 -92 494 -168 716 -79 228 -87 247 -179 400 -170 282 -257 399 -454 614 -30 34 -81 98 -113 143 -62 87 -92 120 -102 111 -3 -4 2 -20 11 -37 35 -68 189 -433 235 -556 27 -71 69 -182 93 -245 52 -132 152 -436 163 -495 4 -22 13 -55 21 -73 38 -92 91 -438 109 -712 28 -451 34 -572 41 -935 9 -448 9 -398 0 -790 -7 -303 -17 -450 -39 -575 -23 -133 -23 -137 12 -155 29 -15 44 -15 208 1 307 29 287 29 397 -4 55 -16 136 -40 180 -52 237 -66 277 -86 380 -181 75 -70 124 -99 165 -99 11 0 39 17 63 39 23 21 61 48 85 59 24 11 60 35 80 52 42 36 137 108 336 255 36 27 42 38 51 87 6 30 15 61 21 69 22 28 21 45 -11 109 -48 96 -63 152 -80 285 -8 66 -24 176 -35 245 -42 264 -49 320 -59 480 -6 91 -15 221 -21 290 -5 69 -10 132 -10 141 -1 54 468 50 1053 -11 59 -7 142 -17 183 -23 l76 -12 29 -75 c92 -233 169 -472 169 -524 0 -13 -5 -16 -17 -11 -98 39 -281 98 -333 106 -114 17 -196 -19 -373 -164 -104 -86 -206 -194 -285 -302 -28 -38 -71 -89 -97 -113 -25 -24 -43 -47 -40 -53 9 -13 77 -4 420 55 256 44 267 43 205 -3 -34 -24 -169 -285 -247 -474 -25 -61 -56 -128 -69 -149 -25 -39 -24 -58 2 -58 37 0 226 109 342 197 26 20 55 33 72 33 83 0 339 -77 483 -145 l77 -37 0 -129 c0 -264 -39 -639 -67 -639 -3 0 -22 13 -42 29 -54 43 -238 155 -406 249 -187 105 -428 232 -437 232 -17 0 -6 -16 23 -37 143 -100 416 -413 543 -623 14 -25 34 -56 44 -69 l17 -24 -105 7 c-173 12 -477 53 -781 106 -203 36 -218 41 -213 72 2 13 10 106 19 208 16 197 16 295 0 294 -11 0 -86 -97 -298 -387 -21 -29 -42 -55 -46 -60 -11 -11 -429 98 -716 188 -148 46 -236 56 -354 40 -118 -17 -108 -10 -520 -338 -75 -60 -173 -132 -219 -160 -87 -53 -125 -98 -158 -183 -23 -59 -15 -74 31 -64 20 5 152 14 293 21 304 15 627 3 1002 -36 129 -14 235 -25 237 -25 15 0 -9 -45 -73 -141 -130 -194 -209 -390 -259 -643 -24 -122 -26 -120 99 -114 92 5 111 10 181 43 42 20 88 40 101 45 38 15 211 127 288 186 105 82 155 132 197 197 35 54 89 202 104 289 13 69 9 68 208 48 97 -11 181 -21 185 -24 4 -2 75 -12 157 -21 83 -8 290 -36 460 -60 171 -25 344 -50 385 -56 41 -6 85 -13 98 -15 17 -3 32 -25 63 -92 145 -310 205 -464 261 -667 26 -96 31 -131 35 -275 3 -91 9 -169 13 -173 11 -12 60 16 100 58 41 43 127 103 227 159 114 65 232 172 297 271 80 121 81 124 67 192 -11 55 -60 149 -164 311 -22 34 -37 65 -33 69 9 9 201 -33 351 -77 182 -54 236 -63 326 -50 152 21 266 71 470 205 284 187 426 306 464 390 l22 49 11 -64 c16 -92 39 -304 57 -520 47 -564 102 -839 215 -1087 75 -163 193 -318 294 -388 140 -96 528 -155 1025 -155 283 0 391 9 509 40 245 67 318 179 329 510 8 223 -27 723 -68 985 -55 345 -120 501 -251 597 -183 133 -356 189 -651 209 -149 10 -203 8 -957 -21 -135 -5 -309 -10 -388 -10 l-142 0 6 -26 7 -26 -42 26 c-56 36 -80 44 -190 67 -92 20 -99 20 -285 3 -155 -14 -309 -18 -821 -18 -346 -1 -670 3 -719 8 l-89 8 -61 57 c-33 31 -87 76 -118 100 -32 24 -58 49 -58 55 0 15 78 53 136 66 98 22 193 78 282 166 l85 84 -6 112 c-4 65 -27 227 -56 383 -75 412 -96 543 -88 552 17 17 193 -192 314 -372 224 -335 338 -571 361 -749 9 -75 27 -89 79 -61 61 33 155 114 193 165 19 26 53 72 74 101 22 30 50 81 64 114 13 33 33 79 45 102 38 75 32 82 -255 289 -199 144 -442 308 -546 368 -46 27 -81 51 -78 53 9 10 268 -49 411 -92 164 -50 217 -62 305 -69 l64 -6 66 67 c80 83 119 142 160 239 45 109 47 127 16 155 -14 14 -64 44 -112 69 l-85 44 -122 -4 c-309 -9 -593 3 -659 29 -28 11 -36 25 -19 36 5 3 75 83 155 178 80 94 172 201 204 236 l58 64 100 -21 c54 -12 169 -33 254 -48 85 -14 188 -35 229 -45 40 -10 110 -24 155 -31 78 -11 87 -10 157 12 104 33 331 151 484 251 144 95 268 211 325 305 l34 57 -49 43 c-91 79 -115 93 -195 104 -52 8 -95 8 -140 0 -287 -45 -787 -69 -806 -39 -9 16 232 263 337 345 107 84 288 208 349 239 19 10 87 49 150 88 63 38 178 102 255 142 77 40 208 108 290 151 149 79 182 94 325 155 41 17 200 93 352 168 l278 137 36 -37 c108 -111 323 -163 488 -120 134 35 181 63 275 159 79 81 92 90 156 111 49 15 89 21 129 19 l59 -3 25 -65 c94 -247 204 -609 257 -844 35 -156 79 -416 71 -423 -12 -12 -61 34 -94 88 -32 53 -33 56 -27 134 17 229 -107 467 -304 583 -42 25 -55 27 -146 27 -90 -1 -106 -4 -154 -29 l-54 -28 -40 18 c-27 13 -63 18 -112 18 -127 -1 -233 -68 -303 -193 -35 -63 -37 -70 -37 -161 0 -107 15 -147 80 -215 28 -31 35 -46 35 -79 0 -159 132 -305 335 -371 79 -26 93 -28 193 -22 134 8 164 17 242 70 148 100 154 102 272 102 82 0 111 -3 122 -15 18 -19 43 -266 56 -570 9 -195 3 -498 -14 -715 -1 -16 -3 -40 -4 -52 -1 -11 -32 -58 -69 -104 -295 -359 -448 -617 -547 -921 -127 -386 -147 -760 -71 -1353 53 -424 79 -741 90 -1127 5 -160 11 -228 19 -228 21 1 215 125 339 217 317 236 641 563 874 883 59 81 182 280 240 390 89 167 170 374 228 579 82 294 142 792 132 1086 -3 83 -6 161 -6 175 -1 46 -41 424 -57 535 -22 158 -78 441 -130 655 -47 194 -140 508 -156 525 -12 13 -23 -6 -48 -85 -34 -105 -212 -455 -300 -588 -45 -68 -119 -171 -166 -228 -105 -131 -275 -326 -280 -321 -2 2 -4 215 -4 473 -1 434 -10 630 -35 764 -4 22 4 30 63 66 121 74 187 87 317 59 39 -8 89 -15 113 -15 51 0 209 50 272 87 101 60 220 206 250 309 17 58 9 200 -14 247 -15 30 -16 42 -7 65 37 94 34 177 -12 267 -32 64 -57 92 -119 136 -73 51 -156 73 -249 66 -83 -7 -121 -23 -183 -78 -46 -41 -54 -44 -110 -45 -83 -2 -183 -36 -233 -78 -50 -44 -117 -169 -139 -262 -39 -165 -5 -377 77 -483 14 -18 19 -40 18 -90 0 -66 -24 -151 -45 -158 -6 -2 -17 41 -27 109 -53 352 -189 851 -322 1183 l-28 69 64 60 c94 87 146 108 280 112 131 5 195 24 290 89 99 68 164 142 209 238 54 118 67 198 45 285 -15 65 -24 84 -67 143 -13 19 -15 32 -8 62 28 128 -58 281 -200 354 -49 25 -65 28 -155 28 -83 0 -108 -4 -150 -23 -56 -26 -106 -70 -140 -123 -19 -30 -32 -37 -81 -48 -153 -34 -245 -123 -280 -269 -18 -79 -18 -250 2 -325 23 -89 80 -195 134 -252 59 -61 74 -109 60 -204 -5 -35 -11 -66 -14 -69 -3 -3 -22 30 -42 74 -189 418 -333 680 -547 996 l-99 148 27 47 c34 57 97 126 139 152 17 11 68 29 113 40 114 28 157 52 244 140 124 124 169 234 169 414 0 81 -4 99 -29 152 -16 33 -49 80 -75 105 -32 30 -46 52 -46 70 0 46 -31 134 -62 172 -98 124 -260 166 -423 109 -30 -11 -70 -31 -89 -46 -40 -30 -96 -115 -105 -159 -4 -16 -13 -32 -21 -36 -88 -41 -118 -61 -160 -107 -64 -70 -85 -131 -84 -248 0 -72 7 -110 32 -190 45 -140 138 -268 234 -320 65 -35 101 -105 96 -187 l-3 -53 -45 58 c-243 316 -534 628 -827 885 -79 68 -143 125 -143 127 0 1 9 27 20 59 37 109 94 172 213 233 105 54 157 109 215 227 115 231 63 508 -114 607 -30 17 -54 36 -54 42 0 26 -49 114 -80 145 -40 40 -131 87 -185 95 -22 3 -69 2 -105 -2 -159 -20 -279 -132 -296 -274 -6 -50 -10 -56 -58 -94 -65 -51 -122 -146 -132 -219 -13 -110 56 -305 146 -406 56 -64 165 -143 231 -167 64 -24 100 -58 128 -121 19 -42 27 -80 16 -80 -2 0 -47 34 -100 75 -295 230 -751 512 -1072 661 -51 24 -93 49 -93 56 1 36 30 141 49 182 13 25 37 59 54 75 18 15 54 48 80 72 87 78 137 212 137 368 0 226 -110 398 -281 441 -36 9 -49 18 -64 46 -71 132 -271 181 -425 104 -125 -63 -218 -225 -190 -330 10 -37 8 -42 -33 -103 -53 -77 -83 -175 -73 -239 12 -82 74 -192 160 -287 70 -77 261 -171 346 -171 23 0 54 -7 69 -15 30 -15 111 -101 111 -117 0 -11 -31 -2 -73 19 -62 31 -311 124 -502 186 -211 69 -501 144 -695 181 -107 20 -116 24 -129 50 -38 79 -20 223 38 303 78 107 97 189 82 347 -10 107 -35 180 -90 260 -84 121 -177 178 -298 182 -58 1 -76 6 -95 24 -51 48 -104 71 -175 75 -37 2 -88 0 -112 -5z m200 -453 c30 -25 107 -124 166 -212 43 -64 157 -285 179 -348 18 -52 -1 -37 -32 26 -42 82 -200 293 -301 400 -74 78 -93 103 -93 127 0 26 4 30 28 30 15 0 39 -10 53 -23z m-1733 -129 c128 -92 402 -372 402 -411 0 -6 -30 18 -67 54 -110 106 -271 230 -397 304 -83 48 -105 69 -106 97 -1 47 65 30 168 -44z m3433 -241 c61 -120 120 -312 154 -509 26 -143 14 -185 -15 -58 -22 95 -108 320 -170 445 -33 66 -60 128 -60 138 0 19 37 38 58 29 7 -2 22 -23 33 -45z m-3026 -726 c-113 -231 -265 -437 -316 -429 -17 2 -25 10 -27 29 -2 21 14 45 86 122 94 101 247 309 290 392 14 28 27 44 30 36 2 -7 -26 -74 -63 -150z m1625 110 c0 -17 -100 -132 -210 -241 -130 -130 -257 -223 -297 -218 -64 7 -27 71 71 120 77 38 357 263 396 318 21 29 40 39 40 21z m-2930 -90 c0 -4 -34 -24 -75 -44 -128 -62 -419 -265 -505 -352 -19 -20 -54 -47 -77 -61 -34 -21 -46 -23 -62 -14 -34 18 -26 55 21 101 99 96 388 263 598 345 93 36 100 38 100 25z m5843 -19 c10 -10 22 -41 27 -68 16 -71 24 -454 12 -557 -14 -128 -31 -134 -29 -11 3 169 -16 317 -78 598 -10 48 36 73 68 38z m-1538 -318 c-36 -29 -219 -141 -292 -177 -47 -24 -204 -85 -260 -102 -47 -13 -84 35 -49 64 8 6 56 22 107 35 149 38 335 112 459 184 61 35 81 33 35 -4z m1250 -754 c-50 -23 -246 -74 -362 -95 -48 -8 -134 -15 -190 -15 -91 0 -105 2 -124 21 -20 20 -20 22 -3 40 16 17 32 19 188 19 166 0 390 19 451 39 17 5 41 9 55 9 21 0 19 -2 -15 -18z m1547 -37 c51 -46 -4 -416 -102 -675 -26 -70 -44 -77 -24 -10 26 84 54 313 61 492 7 209 16 237 65 193z m-1032 -929 c116 -32 270 -54 423 -61 70 -3 127 -9 127 -14 0 -13 -110 -23 -270 -24 -177 0 -381 27 -430 56 -54 33 -29 84 35 72 16 -3 68 -16 115 -29z m1976 -419 c19 -78 -209 -581 -303 -666 -24 -22 -23 -17 15 56 74 145 148 357 188 537 19 88 44 124 74 108 11 -6 23 -22 26 -35z m-1272 -639 c115 -61 341 -153 463 -188 162 -47 93 -48 -127 -2 -135 28 -238 61 -362 114 -101 43 -128 63 -128 95 0 51 30 47 154 -19z m-5895 -631 c117 -97 341 -334 478 -505 34 -41 96 -115 140 -165 95 -108 234 -293 225 -299 -11 -6 -324 58 -483 100 -80 21 -97 18 -184 -26 -97 -49 -113 -64 -172 -159 -58 -93 -141 -201 -155 -201 -7 0 -8 15 -4 42 4 23 11 175 16 337 9 292 32 629 50 746 6 33 10 88 10 123 0 34 3 62 6 62 4 0 37 -25 73 -55z m2238 -102 c124 -154 166 -212 215 -298 140 -247 188 -363 188 -456 l0 -61 32 6 c17 3 56 26 86 51 30 25 57 44 59 41 3 -2 -42 -70 -99 -149 -57 -80 -110 -159 -120 -175 -36 -67 -101 -84 -263 -72 -60 5 -186 14 -280 20 -192 12 -307 29 -302 43 2 6 48 33 103 61 193 100 273 162 324 251 41 73 43 97 20 239 -11 70 -25 198 -31 284 -6 87 -14 190 -18 230 -6 63 -5 82 5 82 1 0 38 -44 81 -97z m5472 -132 c6 -11 7 -30 2 -47 -16 -55 -127 -234 -208 -336 -84 -106 -228 -256 -237 -247 -3 3 13 27 36 55 80 97 241 358 284 463 48 116 97 161 123 112z m-1443 -337 c21 -14 57 -43 79 -64 82 -77 311 -227 430 -281 131 -59 51 -48 -95 13 -271 115 -490 254 -490 313 0 20 17 45 31 45 3 0 24 -12 45 -26z m-7371 -505 c83 -22 179 -49 215 -59 36 -11 108 -27 160 -36 l95 -17 0 -356 0 -356 -70 3 c-181 9 -377 68 -500 152 -104 71 -184 96 -255 79 -12 -3 -15 35 -18 256 -2 143 -4 280 -5 305 l-2 45 55 12 c102 21 165 16 325 -28z m9000 -646 c-15 -154 -68 -500 -131 -848 -88 -488 -249 -1150 -384 -1570 -22 -71 -48 -154 -56 -183 -20 -73 -158 -458 -201 -562 -70 -171 -253 -597 -288 -670 -86 -182 -141 -289 -147 -289 -9 -1 36 120 91 245 55 127 213 540 251 659 18 55 65 192 105 305 62 176 131 386 205 625 10 33 28 96 41 140 12 44 37 130 55 191 19 61 43 149 53 195 10 46 39 161 64 254 73 275 178 747 247 1105 23 118 48 247 55 285 8 39 22 120 31 182 10 62 20 110 22 108 2 -2 -3 -79 -13 -172z m-5945 70 c96 -20 192 -38 213 -40 28 -4 37 -10 37 -25 0 -36 -190 -338 -252 -400 -11 -11 -33 -18 -58 -18 l-39 0 -17 58 c-43 151 -85 276 -123 365 -22 54 -41 101 -41 103 0 8 102 -8 280 -43z m-3110 -513 c41 -11 138 -40 215 -64 77 -25 172 -53 210 -62 39 -9 76 -18 84 -20 12 -4 13 -46 8 -264 -3 -149 -10 -268 -16 -279 -6 -11 -35 -28 -64 -39 l-53 -20 -95 25 c-140 37 -488 143 -561 172 l-26 10 -2 258 c0 142 -2 267 -3 278 -2 17 6 21 43 27 64 9 173 0 260 -22z m2528 -451 c83 -15 76 -2 92 -159 28 -269 37 -365 33 -370 -3 -3 -14 6 -25 20 -11 14 -43 51 -71 84 -65 73 -122 165 -143 231 -23 68 -41 103 -80 151 -52 64 -48 70 44 63 42 -3 110 -12 150 -20z m5879 -409 c22 -149 26 -208 26 -395 0 -220 -9 -313 -50 -520 -18 -91 -32 -127 -33 -80 0 17 7 86 15 155 23 193 20 702 -5 950 -11 107 -19 204 -19 215 1 38 39 -151 66 -325z m907 -46 c-101 -302 -232 -562 -392 -778 -87 -116 -252 -309 -260 -302 -3 3 18 36 46 73 168 224 398 600 485 792 16 36 47 104 69 151 22 47 47 103 56 124 27 67 24 23 -4 -60z m-1485 -544 c81 -315 139 -642 162 -919 14 -166 7 -536 -13 -711 l-13 -115 -6 275 c-12 504 -44 818 -145 1420 -47 283 -46 287 15 50z m1391 -476 c-248 -466 -484 -782 -873 -1167 -104 -103 -192 -185 -195 -182 -3 3 19 31 50 63 84 86 339 381 443 512 143 179 324 433 482 672 79 120 146 218 149 218 3 0 -22 -52 -56 -116z m-3496 -824 c105 -102 272 -262 371 -355 286 -270 597 -568 625 -597 50 -53 258 -244 393 -360 75 -66 137 -121 137 -124 0 -13 -70 39 -208 156 -63 52 -133 111 -156 130 -75 62 -409 353 -471 410 -440 406 -1085 1063 -1085 1106 0 9 176 -154 394 -366z m1125 -45 c0 -143 -4 -309 -9 -370 -13 -139 -39 -328 -51 -363 -10 -29 -8 4 16 333 8 105 17 327 22 495 9 355 20 309 22 -95z m543 -152 c0 -170 -13 -419 -27 -543 -16 -137 -62 -420 -70 -428 -11 -12 -13 6 -4 51 7 41 18 145 55 527 8 87 8 89 19 323 5 116 11 175 18 168 5 -5 9 -49 9 -98z m-1717 -608 c214 -55 513 -120 688 -151 53 -9 97 -20 97 -25 0 -12 13 -13 -168 16 -328 53 -504 93 -735 169 -59 19 -115 40 -125 46 -20 13 -40 18 243 -55z m265 -579 c240 -21 504 -35 830 -43 323 -8 294 -19 -70 -26 -268 -5 -372 0 -710 39 -246 27 -270 31 -270 46 0 6 10 8 23 5 12 -3 101 -13 197 -21z"></path><path id="p1FM7bodw5" d="M2673 11021 c-48 -12 -120 -58 -165 -104 -36 -38 -45 -41 -95 -43 -151 -6 -304 -151 -370 -352 -24 -76 -28 -102 -27 -202 1 -179 21 -232 152 -404 89 -117 100 -207 49 -416 -106 -434 -163 -854 -166 -1232 0 -71 -5 -128 -10 -128 -15 0 -71 120 -71 151 0 16 11 62 25 103 30 89 34 227 10 321 -36 138 -151 305 -231 336 -59 22 -136 29 -204 17 -67 -11 -68 -11 -100 15 -17 15 -57 34 -87 43 -116 34 -246 -8 -338 -108 -68 -73 -89 -134 -84 -247 3 -65 9 -84 32 -120 26 -39 28 -46 16 -74 -7 -17 -12 -61 -11 -97 5 -178 186 -359 407 -405 109 -23 162 -19 257 17 73 28 95 32 178 32 81 0 103 -4 153 -27 l57 -27 1 -197 c0 -242 3 -289 29 -520 25 -223 60 -435 101 -611 17 -73 29 -135 27 -138 -10 -9 -59 39 -84 82 -23 40 -26 55 -28 171 -2 103 -7 140 -25 190 -46 128 -162 269 -270 327 -51 27 -58 28 -150 24 -81 -5 -104 -10 -145 -33 -48 -28 -48 -28 -79 -10 -22 13 -52 19 -107 19 -63 1 -84 -4 -135 -28 -72 -36 -141 -103 -175 -171 -21 -43 -25 -64 -25 -145 0 -107 15 -148 78 -209 28 -27 36 -41 35 -70 -2 -168 139 -315 359 -372 142 -37 292 -11 405 71 84 61 114 77 174 90 49 11 158 6 182 -9 6 -4 34 -83 61 -177 111 -378 269 -772 442 -1102 39 -74 68 -136 65 -139 -9 -10 -92 45 -128 85 -28 31 -37 50 -42 96 -21 166 -166 349 -346 435 -67 32 -83 36 -155 35 -89 0 -134 -18 -214 -82 -39 -32 -49 -35 -98 -33 -130 5 -241 -66 -306 -198 -28 -58 -32 -75 -32 -146 0 -71 4 -89 33 -147 32 -65 65 -98 129 -132 18 -9 33 -24 33 -34 1 -33 42 -107 83 -150 71 -73 178 -118 306 -128 96 -8 172 7 269 51 99 46 125 66 183 143 73 97 138 134 260 147 l65 7 59 -99 c175 -293 399 -601 632 -865 97 -111 102 -118 76 -118 -37 1 -111 35 -146 68 -15 14 -32 42 -37 62 -12 45 -94 146 -168 206 -149 123 -389 173 -514 108 -45 -23 -116 -92 -144 -140 -22 -37 -30 -42 -70 -48 -191 -26 -322 -269 -247 -461 45 -116 95 -165 208 -203 40 -14 62 -28 74 -48 32 -52 84 -97 150 -127 53 -25 80 -31 160 -35 157 -7 256 24 395 126 76 56 112 105 156 213 15 37 41 85 58 107 32 40 153 112 188 112 10 0 88 -69 173 -153 281 -275 552 -499 846 -698 l110 -74 -62 -3 c-78 -4 -130 21 -171 80 -46 66 -176 160 -268 192 -110 38 -282 45 -379 14 -61 -19 -154 -118 -190 -201 -24 -59 -32 -68 -62 -76 -96 -27 -179 -149 -190 -279 -10 -117 22 -205 104 -284 58 -57 130 -90 201 -93 46 -2 59 -8 90 -38 62 -59 115 -80 216 -85 53 -3 111 1 145 8 88 20 201 83 265 148 100 101 129 156 151 283 19 109 48 163 127 234 67 60 86 64 140 28 195 -133 638 -350 983 -483 82 -32 151 -63 153 -68 5 -15 -91 -25 -133 -13 -20 5 -55 25 -78 44 -164 134 -440 166 -641 74 -98 -45 -172 -151 -183 -265 -6 -52 -10 -59 -73 -121 -87 -85 -105 -136 -97 -260 8 -112 48 -196 122 -254 83 -66 125 -79 235 -75 88 3 99 1 153 -26 75 -38 173 -46 249 -21 175 56 287 151 364 310 l49 100 0 145 c0 139 1 147 29 203 15 32 45 76 65 97 l36 38 75 -24 c345 -113 911 -229 1223 -250 64 -5 96 -11 94 -18 -4 -14 -123 -55 -159 -56 -14 0 -56 16 -92 35 -69 36 -216 75 -285 75 -79 0 -216 -31 -286 -65 -149 -72 -204 -153 -213 -313 -5 -88 -6 -94 -38 -127 -54 -57 -74 -115 -74 -211 0 -155 63 -263 190 -326 41 -20 93 -39 116 -43 43 -6 119 8 166 31 23 12 32 11 75 -8 36 -16 67 -21 124 -21 66 0 85 5 140 33 142 71 229 160 283 286 61 141 67 211 31 378 -16 72 -16 83 -2 142 9 34 33 91 54 126 l37 63 471 1 c275 0 499 5 540 11 39 6 74 7 78 3 10 -9 -452 -462 -675 -664 -93 -82 -168 -153 -168 -157 0 -4 35 -10 78 -14 258 -21 428 -42 862 -109 725 -112 1208 -82 1753 108 507 177 963 442 1432 832 150 125 510 481 641 634 149 174 344 432 344 455 0 7 -22 9 -72 4 -110 -11 -405 -10 -563 2 -77 6 -270 14 -430 17 -1091 27 -1904 -119 -2415 -433 -175 -107 -357 -255 -575 -466 l-120 -116 -130 -11 c-314 -29 -461 -34 -729 -29 -228 5 -282 9 -294 21 -19 19 -28 148 -13 201 6 22 31 75 57 117 57 96 74 158 74 268 -1 106 -11 151 -57 248 -26 56 -55 95 -102 143 -79 79 -147 109 -245 109 -54 0 -67 4 -92 27 -15 14 -53 37 -82 51 -47 21 -64 24 -136 20 -56 -3 -95 -12 -128 -27 -147 -71 -237 -240 -201 -378 8 -31 21 -66 29 -79 14 -20 13 -27 -6 -69 -30 -66 -37 -167 -16 -239 24 -81 136 -198 244 -254 130 -68 290 -95 392 -68 48 13 59 12 95 -2 56 -22 85 -42 85 -59 0 -10 -8 -12 -32 -8 -18 3 -91 12 -163 20 -166 20 -433 67 -600 106 -282 66 -536 141 -556 165 -8 10 -10 36 -6 82 9 107 31 154 109 239 80 86 112 148 134 260 47 240 -69 492 -257 558 -23 8 -53 15 -68 15 -19 0 -39 15 -73 54 -68 78 -120 100 -233 100 -80 1 -97 -3 -149 -28 -70 -35 -147 -110 -178 -174 -26 -56 -35 -150 -18 -200 11 -35 9 -41 -23 -94 -39 -66 -62 -158 -55 -223 15 -125 158 -301 300 -368 99 -47 174 -67 248 -67 52 0 68 -5 105 -30 58 -40 104 -94 82 -98 -21 -4 -321 112 -487 188 -230 105 -659 337 -703 379 -11 11 10 97 39 156 33 65 64 97 146 151 85 57 131 108 167 188 59 132 75 222 56 330 -28 159 -93 255 -207 309 -41 20 -56 33 -65 59 -29 79 -111 145 -216 172 -105 27 -247 -15 -331 -98 -51 -52 -86 -130 -86 -194 0 -51 -3 -57 -48 -107 -27 -29 -61 -79 -77 -112 -25 -53 -27 -66 -22 -138 11 -181 140 -360 332 -461 37 -18 79 -34 93 -34 46 0 99 -45 133 -111 17 -34 28 -63 25 -66 -12 -12 -333 215 -516 366 -239 196 -580 518 -580 548 0 24 37 87 80 136 48 54 96 82 169 98 120 26 254 149 312 289 80 191 51 393 -70 489 -32 25 -42 41 -50 82 -15 69 -43 119 -88 160 -73 66 -109 82 -195 87 -109 6 -192 -17 -253 -70 -50 -44 -105 -130 -105 -164 0 -15 -12 -26 -40 -39 -48 -22 -137 -110 -164 -163 -45 -86 -27 -271 38 -405 44 -89 142 -200 206 -232 27 -14 58 -38 69 -54 26 -36 56 -150 44 -162 -12 -12 -271 293 -412 485 -114 155 -236 337 -326 489 l-58 98 47 48 c74 75 132 100 257 109 90 7 113 13 165 41 140 74 219 164 269 308 41 115 28 253 -31 323 -22 26 -26 41 -28 108 -1 57 -8 88 -24 120 -34 65 -85 115 -149 148 -51 26 -68 29 -148 29 -129 0 -200 -35 -260 -130 -22 -36 -36 -47 -69 -55 -149 -37 -229 -127 -256 -288 -20 -123 2 -240 72 -375 24 -46 55 -89 75 -104 38 -30 53 -52 64 -103 9 -40 1 -120 -13 -120 -15 0 -240 467 -315 655 -109 274 -233 653 -233 714 0 17 14 29 65 52 78 37 151 41 269 14 97 -22 163 -13 281 36 66 28 94 47 157 110 96 94 131 161 136 266 3 49 -1 87 -13 122 -16 48 -16 54 1 98 29 76 24 139 -19 226 -33 67 -44 80 -105 120 -133 90 -286 86 -384 -10 -31 -31 -41 -35 -70 -29 -43 7 -158 -17 -207 -45 -70 -39 -141 -155 -171 -279 -28 -112 -4 -308 47 -384 14 -22 28 -56 30 -76 6 -46 -24 -147 -39 -132 -25 25 -98 412 -132 698 -23 188 -45 516 -46 666 l0 57 54 12 c96 21 170 9 277 -44 110 -56 170 -66 286 -47 237 38 418 220 401 402 -5 44 -1 56 28 99 49 73 61 139 40 230 -21 93 -71 160 -157 212 -95 56 -201 62 -290 17 -41 -21 -43 -21 -96 -5 -39 13 -76 16 -127 13 -61 -4 -80 -10 -128 -41 -131 -84 -237 -289 -238 -461 0 -26 7 -76 16 -109 13 -50 14 -69 4 -101 -12 -41 -50 -106 -62 -106 -10 0 1 278 18 460 31 324 73 579 148 883 37 153 54 181 145 234 40 23 51 25 113 19 131 -12 301 42 436 139 144 103 243 254 242 369 -1 68 -26 161 -58 219 -31 55 -31 56 -14 89 12 23 17 57 17 113 0 71 -4 89 -32 145 -42 84 -118 162 -196 202 -53 27 -75 31 -152 34 -49 2 -104 0 -122 -5z m77 -542 c0 -20 -20 -55 -65 -114 -109 -143 -263 -401 -310 -520 -45 -116 -60 -113 -26 5 73 256 286 661 353 672 32 5 48 -9 48 -43z m-1301 -1775 c18 -19 44 -54 58 -77 60 -93 267 -322 348 -384 71 -55 32 -44 -51 14 -160 113 -326 267 -404 374 -63 88 -20 152 49 73z m1357 -129 c21 -53 -128 -189 -371 -338 -103 -63 -154 -89 -167 -85 -6 2 13 19 43 38 83 52 289 231 370 320 73 81 112 100 125 65z m43 -1343 c26 -49 -133 -276 -323 -461 -48 -46 -89 -81 -92 -78 -4 3 18 34 48 69 92 108 248 340 248 371 0 5 15 33 32 63 35 57 68 71 87 36z m-1352 -248 c12 -8 45 -34 72 -58 84 -74 299 -213 415 -267 122 -57 59 -49 -87 10 -189 78 -381 184 -449 248 -69 66 -31 117 49 67z m1727 -1060 c22 -21 20 -36 -13 -150 -34 -119 -73 -213 -147 -354 -56 -106 -107 -177 -85 -118 6 15 19 44 29 65 33 64 111 320 134 436 25 129 45 159 82 121z m-1192 -635 c125 -63 415 -158 531 -174 61 -8 53 -24 -10 -19 -191 17 -347 46 -468 87 -121 42 -153 58 -169 82 -14 22 -14 25 0 39 22 23 47 20 116 -15z m1842 -415 c3 -9 6 -64 6 -122 0 -120 -26 -289 -65 -432 -36 -131 -36 -130 -47 -130 -5 0 -7 8 -4 18 28 97 49 364 40 523 -4 70 -4 135 -1 143 8 21 63 21 71 0z m-989 -943 c95 -15 169 -19 353 -17 192 1 228 -1 204 -11 -36 -15 -193 -39 -343 -52 -111 -11 -324 1 -358 18 -45 25 -49 66 -8 74 12 2 24 5 27 5 3 1 59 -7 125 -17z m1909 -16 c24 -50 64 -233 76 -345 12 -114 13 -320 2 -320 -4 0 -13 44 -20 98 -18 136 -57 307 -103 446 -22 65 -37 127 -34 137 4 13 16 19 35 19 22 0 31 -7 44 -35z m1069 -647 c70 -93 162 -321 217 -537 27 -107 21 -137 -10 -46 -34 103 -159 356 -229 464 -34 52 -61 100 -61 107 0 53 47 60 83 12z m-1247 -395 c-56 -30 -284 -113 -377 -137 -197 -50 -309 -54 -326 -10 -12 33 20 46 148 56 128 9 434 65 504 92 22 8 49 15 60 15 16 0 14 -3 -9 -16z m2533 8 c27 -15 154 -178 211 -272 69 -112 164 -303 158 -319 -2 -7 -17 12 -33 41 -45 83 -229 322 -309 402 -85 84 -109 118 -100 141 7 18 45 21 73 7z m5311 -35 c-37 -36 -476 -274 -775 -421 -294 -145 -694 -326 -950 -430 -346 -140 -929 -326 -1315 -419 -306 -73 -893 -181 -887 -162 2 5 100 31 218 58 413 92 649 155 994 263 99 32 232 73 295 92 63 19 162 52 220 74 58 21 213 77 345 124 249 90 314 116 730 295 350 151 528 234 850 397 154 78 282 142 285 143 2 0 -2 -6 -10 -14z m-1805 -77 c385 -36 917 -37 1385 -4 l65 5 -41 -14 c-73 -24 -333 -57 -544 -68 -437 -22 -786 6 -1262 103 -94 19 -58 26 64 12 62 -7 212 -23 333 -34z m1449 -261 c-11 -13 -81 -93 -156 -178 -267 -305 -525 -530 -868 -755 -152 -99 -226 -143 -216 -127 4 7 33 30 65 51 88 60 372 282 506 396 154 131 267 236 490 457 99 98 184 178 189 178 5 0 1 -10 -10 -22z m-6159 -278 c-53 -59 -346 -238 -480 -294 -115 -48 -169 -56 -184 -28 -19 36 14 58 159 106 136 44 395 162 460 209 44 32 72 36 45 7z m4890 -6 c-132 -36 -437 -78 -695 -96 -185 -12 -338 -6 -715 27 -244 22 -311 36 -125 27 80 -4 318 -7 530 -7 389 1 713 18 897 49 43 8 96 14 118 14 l40 0 -50 -14z m110 -266 c-317 -344 -588 -538 -1007 -723 -219 -96 -221 -88 -8 30 364 203 619 379 943 652 55 46 102 83 105 83 3 0 -12 -19 -33 -42z m-3521 -60 c-63 -106 -354 -348 -512 -426 l-72 -36 -22 22 -22 22 25 26 c13 14 60 44 104 66 145 73 413 254 469 317 21 23 42 29 30 9z"></path></g></g></svg>