<?xml version="1.0" encoding="UTF-8" standalone="no"?>
<svg
   class="img-fluid"
   id="outputsvg"
   width="1200"
   height="1200"
   viewBox="0 0 12000 12000"
   version="1.1"
   sodipodi:docname="logo_sm.svg"
   inkscape:version="1.4.2 (ebf0e940d0, 2025-05-08)"
   inkscape:export-filename="logo_sm.png"
   inkscape:export-xdpi="96"
   inkscape:export-ydpi="96"
   xmlns:inkscape="http://www.inkscape.org/namespaces/inkscape"
   xmlns:sodipodi="http://sodipodi.sourceforge.net/DTD/sodipodi-0.dtd"
   xmlns="http://www.w3.org/2000/svg"
   xmlns:svg="http://www.w3.org/2000/svg">
  <defs
     id="defs2" />
  <sodipodi:namedview
     id="namedview2"
     pagecolor="#ffffff"
     bordercolor="#000000"
     borderopacity="0.25"
     inkscape:showpageshadow="2"
     inkscape:pageopacity="0.0"
     inkscape:pagecheckerboard="0"
     inkscape:deskcolor="#d1d1d1"
     inkscape:zoom="0.35355339"
     inkscape:cx="255.97265"
     inkscape:cy="543.05801"
     inkscape:window-width="1280"
     inkscape:window-height="643"
     inkscape:window-x="1280"
     inkscape:window-y="712"
     inkscape:window-maximized="0"
     inkscape:current-layer="l4QPunSavrwobNIu8IiJNL6" />
  <g
     id="l4QPunSavrwobNIu8IiJNL6"
     fill="#0a090a">
    <g
       id="g2"
       transform="matrix(0.70178213,0,0,0.70178213,286.37758,305.25891)">
      <path
         id="p7uOGdxVr"
         d="m 8431,15170 c -107,-23 -215,-127 -255,-244 -25,-77 -17,-174 20,-229 10,-15 8,-31 -12,-88 -43,-122 -27,-228 48,-326 122,-159 366,-257 557,-222 61,10 75,10 113,-5 40,-15 108,-67 108,-82 0,-4 -15,-4 -32,0 -53,11 -361,44 -519,57 -141,11 -767,6 -937,-7 l -72,-6 -32,67 c -38,83 -49,171 -30,247 48,189 46,174 28,264 -22,113 -48,180 -96,245 -53,70 -141,146 -206,176 -67,31 -183,41 -242,20 -40,-14 -45,-13 -104,10 -75,31 -131,32 -219,4 -58,-18 -75,-30 -125,-84 -72,-76 -104,-157 -104,-257 0,-71 29,-149 70,-190 20,-20 22,-32 21,-106 -5,-201 93,-314 329,-384 129,-38 303,-27 399,26 58,32 117,31 192,-2 33,-15 59,-30 59,-34 0,-9 -5,-10 -225,-40 -294,-41 -549,-97 -887,-196 -115,-33 -206,-54 -236,-54 -76,0 -169,34 -237,86 -85,64 -128,84 -214,100 -212,38 -406,-13 -560,-146 -95,-81 -142,-172 -146,-279 -3,-71 -6,-79 -37,-112 -18,-19 -46,-60 -63,-90 -28,-50 -30,-61 -30,-159 0,-99 2,-109 34,-173 42,-83 120,-158 211,-201 57,-27 76,-31 150,-31 70,0 93,4 129,23 l 44,23 60,-27 c 35,-15 91,-30 134,-35 115,-13 163,0 259,67 79,56 141,125 198,222 68,117 89,205 90,382 1,118 5,152 19,180 26,51 62,89 100,105 44,18 362,109 473,135 256,60 719,139 733,124 10,-10 -62,-62 -106,-78 -31,-11 -52,-12 -75,-5 -86,24 -249,-1 -359,-57 -88,-43 -203,-154 -237,-226 -29,-62 -30,-157 -2,-230 22,-59 25,-89 10,-104 -5,-5 -15,-36 -21,-67 -14,-80 2,-150 52,-225 68,-102 163,-152 285,-152 69,0 132,24 191,74 24,20 37,24 65,19 62,-10 160,30 228,93 74,69 112,128 146,229 24,73 26,89 21,183 -6,112 -20,152 -94,266 -36,56 -38,64 -41,150 -2,50 1,103 6,117 10,25 13,26 159,37 374,29 641,25 1052,-18 373,-39 369,-38 287,-77 -74,-37 -108,-38 -171,-9 -51,23 -109,36 -215,49 -60,8 -190,-23 -280,-64 -157,-74 -215,-165 -209,-329 3,-69 1,-82 -18,-102 -11,-13 -31,-43 -44,-68 -50,-99 -17,-266 73,-357 91,-92 238,-125 341,-74 44,21 52,22 93,11 71,-20 180,-9 244,26 80,43 181,146 218,224 68,140 79,248 38,374 -36,109 -35,177 5,266 27,59 35,70 56,70 69,0 443,-89 691,-165 291,-88 681,-240 664,-257 -13,-13 -106,-21 -146,-14 -20,4 -56,24 -82,47 -97,83 -226,129 -365,129 -146,0 -258,-37 -317,-105 -37,-41 -82,-126 -82,-152 0,-34 -21,-93 -33,-93 -23,-1 -66,-45 -101,-104 -34,-56 -36,-65 -36,-147 0,-136 41,-223 135,-286 70,-46 128,-61 203,-52 45,5 62,3 82,-11 82,-57 186,-72 286,-41 131,40 235,117 302,225 67,105 74,129 77,256 1,63 7,129 13,147 12,38 47,91 95,143 l 37,39 77,-36 c 43,-20 137,-67 208,-106 339,-182 495,-281 818,-520 160,-118 169,-135 68,-121 -68,9 -121,41 -158,98 -40,62 -74,97 -145,153 -137,106 -332,146 -490,103 -52,-15 -139,-97 -176,-168 -29,-53 -36,-60 -70,-66 -87,-13 -177,-117 -206,-238 -15,-60 -15,-73 -2,-139 18,-83 71,-173 123,-209 37,-25 134,-60 168,-60 14,0 30,-13 46,-37 15,-23 48,-50 89,-72 64,-36 66,-36 185,-36 108,0 127,3 193,29 127,49 237,145 288,251 19,38 34,77 34,85 0,38 34,112 71,154 39,44 144,116 169,116 39,0 538,-476 713,-680 94,-110 297,-364 297,-372 0,-14 -29,-8 -87,18 -77,33 -109,67 -127,129 -19,62 -81,160 -139,219 -52,52 -160,117 -242,147 -43,16 -85,22 -145,23 -74,1 -91,-3 -135,-26 -52,-28 -109,-76 -137,-117 -14,-20 -30,-26 -83,-32 -112,-14 -185,-71 -244,-191 -27,-55 -32,-76 -33,-144 -1,-146 60,-246 187,-305 52,-25 65,-36 80,-70 29,-64 115,-135 191,-159 148,-45 283,-35 422,32 105,51 176,119 230,219 59,110 123,160 244,192 l 56,14 72,-104 c 206,-299 372,-595 536,-955 34,-76 57,-138 51,-138 -19,0 -69,34 -106,71 -43,42 -61,85 -60,140 2,96 -82,259 -183,355 -181,173 -364,200 -524,78 -34,-26 -43,-28 -133,-29 -81,0 -103,-4 -141,-24 -60,-31 -133,-109 -167,-179 -24,-50 -28,-69 -28,-147 0,-73 5,-100 24,-142 23,-53 81,-114 125,-135 17,-7 26,-22 30,-50 4,-22 13,-53 21,-69 15,-28 15,-28 -21,-35 -20,-4 -138,-3 -263,0 -214,7 -233,6 -361,-17 -363,-67 -648,-74 -815,-22 -107,34 -187,41 -269,24 -57,-11 -66,-17 -147,-98 -207,-207 -424,-449 -485,-543 -36,-54 -69,-98 -74,-98 -4,0 -19,19 -33,43 -47,79 -165,182 -361,313 -38,26 -252,138 -408,215 l -118,58 v 60 59 l 48,7 c 106,15 308,69 492,132 172,58 250,88 494,190 68,28 199,106 373,221 132,88 169,115 284,210 75,62 208,207 221,242 5,13 -7,33 -43,71 -27,30 -58,64 -68,75 -23,28 -135,49 -228,42 -55,-4 -83,-13 -134,-40 -35,-20 -95,-46 -134,-58 -83,-27 -198,-83 -240,-117 -16,-13 -58,-45 -93,-70 -35,-25 -119,-108 -188,-185 -69,-77 -162,-172 -207,-211 -45,-39 -115,-102 -155,-138 -103,-96 -389,-309 -413,-309 -10,0 1,733 13,825 8,63 13,216 13,411 v 311 l -38,56 c -26,41 -57,69 -105,100 -67,43 -67,43 -157,42 -70,-1 -100,-6 -137,-23 -26,-12 -57,-22 -70,-22 -26,-1 -56,-24 -117,-91 -33,-37 -45,-62 -62,-125 -29,-111 -77,-228 -159,-384 -39,-74 -94,-183 -123,-242 -29,-59 -57,-108 -64,-108 -6,0 -34,42 -62,93 -35,64 -69,110 -112,152 l -63,60 -89,4 c -78,3 -91,1 -110,-17 -12,-11 -48,-30 -79,-42 -47,-18 -62,-29 -89,-71 -44,-69 -78,-164 -100,-284 -10,-55 -28,-121 -40,-147 -32,-68 -23,-81 48,-72 32,3 86,18 121,32 91,36 153,28 280,-38 53,-27 120,-64 147,-82 28,-18 86,-55 130,-83 68,-42 128,-85 359,-261 23,-17 47,-38 55,-47 7,-10 19,-17 27,-17 9,0 6,16 -12,58 -37,83 -121,259 -151,317 -14,28 -45,86 -68,131 -22,44 -69,117 -103,161 -34,44 -62,85 -62,91 0,6 26,32 58,59 116,97 198,168 242,209 46,43 156,107 170,99 7,-4 30,-456 35,-680 1,-71 6,-267 10,-435 13,-492 -25,-1014 -91,-1240 -13,-46 -24,-92 -24,-102 0,-13 -8,-18 -27,-18 -54,1 -108,37 -207,141 -165,174 -294,302 -392,390 -51,46 -93,89 -93,94 -1,6 54,21 121,34 130,25 175,39 308,96 47,20 134,52 194,71 59,19 113,37 118,40 30,19 78,198 78,293 0,41 -28,105 -54,123 -22,15 -162,58 -190,58 -16,0 -51,-13 -77,-30 -27,-16 -60,-32 -74,-36 -39,-10 -111,-98 -166,-205 -64,-124 -234,-318 -327,-373 -7,-4 -50,21 -111,66 -246,183 -319,233 -506,356 -110,72 -208,137 -217,144 -15,11 -16,22 -9,78 5,36 14,110 21,165 6,55 19,170 30,255 11,85 22,196 25,245 3,50 10,126 15,170 5,44 12,109 15,145 3,36 12,124 21,195 10,72 19,167 21,212 4,78 3,86 -28,144 -40,74 -68,103 -143,148 -54,32 -61,34 -159,35 l -102,1 -95,-49 c -52,-27 -115,-56 -139,-65 l -44,-16 -39,-110 c -22,-61 -45,-130 -53,-155 -39,-130 -265,-562 -426,-816 -58,-91 -53,-95 43,-31 35,23 110,71 166,107 56,36 140,89 185,119 98,65 143,85 152,70 7,-10 -1,-1170 -10,-1569 l -5,-195 -92,1 c -124,1 -259,32 -388,89 -190,84 -219,95 -259,95 -49,0 -99,-39 -126,-100 -10,-22 -21,-40 -25,-40 -12,0 -20,28 -20,64 0,102 -92,494 -168,716 -79,228 -87,247 -179,400 -170,282 -257,399 -454,614 -30,34 -81,98 -113,143 -62,87 -92,120 -102,111 -3,-4 2,-20 11,-37 35,-68 189,-433 235,-556 27,-71 69,-182 93,-245 52,-132 152,-436 163,-495 4,-22 13,-55 21,-73 38,-92 91,-438 109,-712 28,-451 34,-572 41,-935 9,-448 9,-398 0,-790 -7,-303 -17,-450 -39,-575 -23,-133 -23,-137 12,-155 29,-15 44,-15 208,1 307,29 287,29 397,-4 55,-16 136,-40 180,-52 237,-66 277,-86 380,-181 75,-70 124,-99 165,-99 11,0 39,17 63,39 23,21 61,48 85,59 24,11 60,35 80,52 42,36 137,108 336,255 36,27 42,38 51,87 6,30 15,61 21,69 22,28 21,45 -11,109 -48,96 -63,152 -80,285 -8,66 -24,176 -35,245 -42,264 -49,320 -59,480 -6,91 -15,221 -21,290 -5,69 -10,132 -10,141 -1,54 468,50 1053,-11 59,-7 142,-17 183,-23 l 76,-12 29,-75 c 92,-233 169,-472 169,-524 0,-13 -5,-16 -17,-11 -98,39 -281,98 -333,106 -114,17 -196,-19 -373,-164 -104,-86 -206,-194 -285,-302 -28,-38 -71,-89 -97,-113 -25,-24 -43,-47 -40,-53 9,-13 77,-4 420,55 256,44 267,43 205,-3 -34,-24 -169,-285 -247,-474 -25,-61 -56,-128 -69,-149 -25,-39 -24,-58 2,-58 37,0 226,109 342,197 26,20 55,33 72,33 83,0 339,-77 483,-145 l 77,-37 v -129 c 0,-264 -39,-639 -67,-639 -3,0 -22,13 -42,29 -54,43 -238,155 -406,249 -187,105 -428,232 -437,232 -17,0 -6,-16 23,-37 143,-100 416,-413 543,-623 14,-25 34,-56 44,-69 l 17,-24 -105,7 c -173,12 -477,53 -781,106 -203,36 -218,41 -213,72 2,13 10,106 19,208 16,197 16,295 0,294 -11,0 -86,-97 -298,-387 -21,-29 -42,-55 -46,-60 -11,-11 -429,98 -716,188 -148,46 -236,56 -354,40 -118,-17 -108,-10 -520,-338 -75,-60 -173,-132 -219,-160 -87,-53 -125,-98 -158,-183 -23,-59 -15,-74 31,-64 20,5 152,14 293,21 304,15 627,3 1002,-36 129,-14 235,-25 237,-25 15,0 -9,-45 -73,-141 -130,-194 -209,-390 -259,-643 -24,-122 -26,-120 99,-114 92,5 111,10 181,43 42,20 88,40 101,45 38,15 211,127 288,186 105,82 155,132 197,197 35,54 89,202 104,289 13,69 9,68 208,48 97,-11 181,-21 185,-24 4,-2 75,-12 157,-21 83,-8 290,-36 460,-60 171,-25 344,-50 385,-56 41,-6 85,-13 98,-15 17,-3 32,-25 63,-92 145,-310 205,-464 261,-667 26,-96 31,-131 35,-275 3,-91 9,-169 13,-173 11,-12 60,16 100,58 41,43 127,103 227,159 114,65 232,172 297,271 80,121 81,124 67,192 -11,55 -60,149 -164,311 -22,34 -37,65 -33,69 9,9 201,-33 351,-77 182,-54 236,-63 326,-50 152,21 266,71 470,205 284,187 426,306 464,390 l 22,49 11,-64 c 16,-92 39,-304 57,-520 47,-564 102,-839 215,-1087 75,-163 193,-318 294,-388 140,-96 528,-155 1025,-155 283,0 391,9 509,40 245,67 318,179 329,510 8,223 -27,723 -68,985 -55,345 -120,501 -251,597 -183,133 -356,189 -651,209 -149,10 -203,8 -957,-21 -135,-5 -309,-10 -388,-10 h -142 l 6,-26 7,-26 -42,26 c -56,36 -80,44 -190,67 -92,20 -99,20 -285,3 -155,-14 -309,-18 -821,-18 -346,-1 -670,3 -719,8 l -89,8 -61,57 c -33,31 -87,76 -118,100 -32,24 -58,49 -58,55 0,15 78,53 136,66 98,22 193,78 282,166 l 85,84 -6,112 c -4,65 -27,227 -56,383 -75,412 -96,543 -88,552 17,17 193,-192 314,-372 224,-335 338,-571 361,-749 9,-75 27,-89 79,-61 61,33 155,114 193,165 19,26 53,72 74,101 22,30 50,81 64,114 13,33 33,79 45,102 38,75 32,82 -255,289 -199,144 -442,308 -546,368 -46,27 -81,51 -78,53 9,10 268,-49 411,-92 164,-50 217,-62 305,-69 l 64,-6 66,67 c 80,83 119,142 160,239 45,109 47,127 16,155 -14,14 -64,44 -112,69 l -85,44 -122,-4 c -309,-9 -593,3 -659,29 -28,11 -36,25 -19,36 5,3 75,83 155,178 80,94 172,201 204,236 l 58,64 100,-21 c 54,-12 169,-33 254,-48 85,-14 188,-35 229,-45 40,-10 110,-24 155,-31 78,-11 87,-10 157,12 104,33 331,151 484,251 144,95 268,211 325,305 l 34,57 -49,43 c -91,79 -115,93 -195,104 -52,8 -95,8 -140,0 -287,-45 -787,-69 -806,-39 -9,16 232,263 337,345 107,84 288,208 349,239 19,10 87,49 150,88 63,38 178,102 255,142 77,40 208,108 290,151 149,79 182,94 325,155 41,17 200,93 352,168 l 278,137 36,-37 c 108,-111 323,-163 488,-120 134,35 181,63 275,159 79,81 92,90 156,111 49,15 89,21 129,19 l 59,-3 25,-65 c 94,-247 204,-609 257,-844 35,-156 79,-416 71,-423 -12,-12 -61,34 -94,88 -32,53 -33,56 -27,134 17,229 -107,467 -304,583 -42,25 -55,27 -146,27 -90,-1 -106,-4 -154,-29 l -54,-28 -40,18 c -27,13 -63,18 -112,18 -127,-1 -233,-68 -303,-193 -35,-63 -37,-70 -37,-161 0,-107 15,-147 80,-215 28,-31 35,-46 35,-79 0,-159 132,-305 335,-371 79,-26 93,-28 193,-22 134,8 164,17 242,70 148,100 154,102 272,102 82,0 111,-3 122,-15 18,-19 43,-266 56,-570 9,-195 3,-498 -14,-715 -1,-16 -3,-40 -4,-52 -1,-11 -32,-58 -69,-104 -295,-359 -448,-617 -547,-921 -127,-386 -147,-760 -71,-1353 53,-424 79,-741 90,-1127 5,-160 11,-228 19,-228 21,1 215,125 339,217 317,236 641,563 874,883 59,81 182,280 240,390 89,167 170,374 228,579 82,294 142,792 132,1086 -3,83 -6,161 -6,175 -1,46 -41,424 -57,535 -22,158 -78,441 -130,655 -47,194 -140,508 -156,525 -12,13 -23,-6 -48,-85 -34,-105 -212,-455 -300,-588 -45,-68 -119,-171 -166,-228 -105,-131 -275,-326 -280,-321 -2,2 -4,215 -4,473 -1,434 -10,630 -35,764 -4,22 4,30 63,66 121,74 187,87 317,59 39,-8 89,-15 113,-15 51,0 209,50 272,87 101,60 220,206 250,309 17,58 9,200 -14,247 -15,30 -16,42 -7,65 37,94 34,177 -12,267 -32,64 -57,92 -119,136 -73,51 -156,73 -249,66 -83,-7 -121,-23 -183,-78 -46,-41 -54,-44 -110,-45 -83,-2 -183,-36 -233,-78 -50,-44 -117,-169 -139,-262 -39,-165 -5,-377 77,-483 14,-18 19,-40 18,-90 0,-66 -24,-151 -45,-158 -6,-2 -17,41 -27,109 -53,352 -189,851 -322,1183 l -28,69 64,60 c 94,87 146,108 280,112 131,5 195,24 290,89 99,68 164,142 209,238 54,118 67,198 45,285 -15,65 -24,84 -67,143 -13,19 -15,32 -8,62 28,128 -58,281 -200,354 -49,25 -65,28 -155,28 -83,0 -108,-4 -150,-23 -56,-26 -106,-70 -140,-123 -19,-30 -32,-37 -81,-48 -153,-34 -245,-123 -280,-269 -18,-79 -18,-250 2,-325 23,-89 80,-195 134,-252 59,-61 74,-109 60,-204 -5,-35 -11,-66 -14,-69 -3,-3 -22,30 -42,74 -189,418 -333,680 -547,996 l -99,148 27,47 c 34,57 97,126 139,152 17,11 68,29 113,40 114,28 157,52 244,140 124,124 169,234 169,414 0,81 -4,99 -29,152 -16,33 -49,80 -75,105 -32,30 -46,52 -46,70 0,46 -31,134 -62,172 -98,124 -260,166 -423,109 -30,-11 -70,-31 -89,-46 -40,-30 -96,-115 -105,-159 -4,-16 -13,-32 -21,-36 -88,-41 -118,-61 -160,-107 -64,-70 -85,-131 -84,-248 0,-72 7,-110 32,-190 45,-140 138,-268 234,-320 65,-35 101,-105 96,-187 l -3,-53 -45,58 c -243,316 -534,628 -827,885 -79,68 -143,125 -143,127 0,1 9,27 20,59 37,109 94,172 213,233 105,54 157,109 215,227 115,231 63,508 -114,607 -30,17 -54,36 -54,42 0,26 -49,114 -80,145 -40,40 -131,87 -185,95 -22,3 -69,2 -105,-2 -159,-20 -279,-132 -296,-274 -6,-50 -10,-56 -58,-94 -65,-51 -122,-146 -132,-219 -13,-110 56,-305 146,-406 56,-64 165,-143 231,-167 64,-24 100,-58 128,-121 19,-42 27,-80 16,-80 -2,0 -47,34 -100,75 -295,230 -751,512 -1072,661 -51,24 -93,49 -93,56 1,36 30,141 49,182 13,25 37,59 54,75 18,15 54,48 80,72 87,78 137,212 137,368 0,226 -110,398 -281,441 -36,9 -49,18 -64,46 -71,132 -271,181 -425,104 -125,-63 -218,-225 -190,-330 10,-37 8,-42 -33,-103 -53,-77 -83,-175 -73,-239 12,-82 74,-192 160,-287 70,-77 261,-171 346,-171 23,0 54,-7 69,-15 30,-15 111,-101 111,-117 0,-11 -31,-2 -73,19 -62,31 -311,124 -502,186 -211,69 -501,144 -695,181 -107,20 -116,24 -129,50 -38,79 -20,223 38,303 78,107 97,189 82,347 -10,107 -35,180 -90,260 -84,121 -177,178 -298,182 -58,1 -76,6 -95,24 -51,48 -104,71 -175,75 -37,2 -88,0 -112,-5 z m 200,-453 c 30,-25 107,-124 166,-212 43,-64 157,-285 179,-348 18,-52 -1,-37 -32,26 -42,82 -200,293 -301,400 -74,78 -93,103 -93,127 0,26 4,30 28,30 15,0 39,-10 53,-23 z m -1733,-129 c 128,-92 402,-372 402,-411 0,-6 -30,18 -67,54 -110,106 -271,230 -397,304 -83,48 -105,69 -106,97 -1,47 65,30 168,-44 z m 3433,-241 c 61,-120 120,-312 154,-509 26,-143 14,-185 -15,-58 -22,95 -108,320 -170,445 -33,66 -60,128 -60,138 0,19 37,38 58,29 7,-2 22,-23 33,-45 z m -3026,-726 c -113,-231 -265,-437 -316,-429 -17,2 -25,10 -27,29 -2,21 14,45 86,122 94,101 247,309 290,392 14,28 27,44 30,36 2,-7 -26,-74 -63,-150 z m 1625,110 c 0,-17 -100,-132 -210,-241 -130,-130 -257,-223 -297,-218 -64,7 -27,71 71,120 77,38 357,263 396,318 21,29 40,39 40,21 z m -2930,-90 c 0,-4 -34,-24 -75,-44 -128,-62 -419,-265 -505,-352 -19,-20 -54,-47 -77,-61 -34,-21 -46,-23 -62,-14 -34,18 -26,55 21,101 99,96 388,263 598,345 93,36 100,38 100,25 z m 5843,-19 c 10,-10 22,-41 27,-68 16,-71 24,-454 12,-557 -14,-128 -31,-134 -29,-11 3,169 -16,317 -78,598 -10,48 36,73 68,38 z m -1538,-318 c -36,-29 -219,-141 -292,-177 -47,-24 -204,-85 -260,-102 -47,-13 -84,35 -49,64 8,6 56,22 107,35 149,38 335,112 459,184 61,35 81,33 35,-4 z m 1250,-754 c -50,-23 -246,-74 -362,-95 -48,-8 -134,-15 -190,-15 -91,0 -105,2 -124,21 -20,20 -20,22 -3,40 16,17 32,19 188,19 166,0 390,19 451,39 17,5 41,9 55,9 21,0 19,-2 -15,-18 z m 1547,-37 c 51,-46 -4,-416 -102,-675 -26,-70 -44,-77 -24,-10 26,84 54,313 61,492 7,209 16,237 65,193 z m -1032,-929 c 116,-32 270,-54 423,-61 70,-3 127,-9 127,-14 0,-13 -110,-23 -270,-24 -177,0 -381,27 -430,56 -54,33 -29,84 35,72 16,-3 68,-16 115,-29 z m 1976,-419 c 19,-78 -209,-581 -303,-666 -24,-22 -23,-17 15,56 74,145 148,357 188,537 19,88 44,124 74,108 11,-6 23,-22 26,-35 z m -1272,-639 c 115,-61 341,-153 463,-188 162,-47 93,-48 -127,-2 -135,28 -238,61 -362,114 -101,43 -128,63 -128,95 0,51 30,47 154,-19 z M 6879,9895 c 117,-97 341,-334 478,-505 34,-41 96,-115 140,-165 95,-108 234,-293 225,-299 -11,-6 -324,58 -483,100 -80,21 -97,18 -184,-26 -97,-49 -113,-64 -172,-159 -58,-93 -141,-201 -155,-201 -7,0 -8,15 -4,42 4,23 11,175 16,337 9,292 32,629 50,746 6,33 10,88 10,123 0,34 3,62 6,62 4,0 37,-25 73,-55 z m 2238,-102 c 124,-154 166,-212 215,-298 140,-247 188,-363 188,-456 v -61 l 32,6 c 17,3 56,26 86,51 30,25 57,44 59,41 3,-2 -42,-70 -99,-149 -57,-80 -110,-159 -120,-175 -36,-67 -101,-84 -263,-72 -60,5 -186,14 -280,20 -192,12 -307,29 -302,43 2,6 48,33 103,61 193,100 273,162 324,251 41,73 43,97 20,239 -11,70 -25,198 -31,284 -6,87 -14,190 -18,230 -6,63 -5,82 5,82 1,0 38,-44 81,-97 z m 5472,-132 c 6,-11 7,-30 2,-47 -16,-55 -127,-234 -208,-336 -84,-106 -228,-256 -237,-247 -3,3 13,27 36,55 80,97 241,358 284,463 48,116 97,161 123,112 z m -1443,-337 c 21,-14 57,-43 79,-64 82,-77 311,-227 430,-281 131,-59 51,-48 -95,13 -271,115 -490,254 -490,313 0,20 17,45 31,45 3,0 24,-12 45,-26 z M 5775,8819 c 83,-22 179,-49 215,-59 36,-11 108,-27 160,-36 l 95,-17 v -356 -356 l -70,3 c -181,9 -377,68 -500,152 -104,71 -184,96 -255,79 -12,-3 -15,35 -18,256 -2,143 -4,280 -5,305 l -2,45 55,12 c 102,21 165,16 325,-28 z m 9000,-646 c -15,-154 -68,-500 -131,-848 -88,-488 -249,-1150 -384,-1570 -22,-71 -48,-154 -56,-183 -20,-73 -158,-458 -201,-562 -70,-171 -253,-597 -288,-670 -86,-182 -141,-289 -147,-289 -9,-1 36,120 91,245 55,127 213,540 251,659 18,55 65,192 105,305 62,176 131,386 205,625 10,33 28,96 41,140 12,44 37,130 55,191 19,61 43,149 53,195 10,46 39,161 64,254 73,275 178,747 247,1105 23,118 48,247 55,285 8,39 22,120 31,182 10,62 20,110 22,108 2,-2 -3,-79 -13,-172 z m -5945,70 c 96,-20 192,-38 213,-40 28,-4 37,-10 37,-25 0,-36 -190,-338 -252,-400 -11,-11 -33,-18 -58,-18 h -39 l -17,58 c -43,151 -85,276 -123,365 -22,54 -41,101 -41,103 0,8 102,-8 280,-43 z M 5720,7730 c 41,-11 138,-40 215,-64 77,-25 172,-53 210,-62 39,-9 76,-18 84,-20 12,-4 13,-46 8,-264 -3,-149 -10,-268 -16,-279 -6,-11 -35,-28 -64,-39 l -53,-20 -95,25 c -140,37 -488,143 -561,172 l -26,10 -2,258 c 0,142 -2,267 -3,278 -2,17 6,21 43,27 64,9 173,0 260,-22 z m 2528,-451 c 83,-15 76,-2 92,-159 28,-269 37,-365 33,-370 -3,-3 -14,6 -25,20 -11,14 -43,51 -71,84 -65,73 -122,165 -143,231 -23,68 -41,103 -80,151 -52,64 -48,70 44,63 42,-3 110,-12 150,-20 z m 5879,-409 c 22,-149 26,-208 26,-395 0,-220 -9,-313 -50,-520 -18,-91 -32,-127 -33,-80 0,17 7,86 15,155 23,193 20,702 -5,950 -11,107 -19,204 -19,215 1,38 39,-151 66,-325 z m 907,-46 c -101,-302 -232,-562 -392,-778 -87,-116 -252,-309 -260,-302 -3,3 18,36 46,73 168,224 398,600 485,792 16,36 47,104 69,151 22,47 47,103 56,124 27,67 24,23 -4,-60 z m -1485,-544 c 81,-315 139,-642 162,-919 14,-166 7,-536 -13,-711 l -13,-115 -6,275 c -12,504 -44,818 -145,1420 -47,283 -46,287 15,50 z m 1391,-476 c -248,-466 -484,-782 -873,-1167 -104,-103 -192,-185 -195,-182 -3,3 19,31 50,63 84,86 339,381 443,512 143,179 324,433 482,672 79,120 146,218 149,218 3,0 -22,-52 -56,-116 z m -3496,-824 c 105,-102 272,-262 371,-355 286,-270 597,-568 625,-597 50,-53 258,-244 393,-360 75,-66 137,-121 137,-124 0,-13 -70,39 -208,156 -63,52 -133,111 -156,130 -75,62 -409,353 -471,410 -440,406 -1085,1063 -1085,1106 0,9 176,-154 394,-366 z m 1125,-45 c 0,-143 -4,-309 -9,-370 -13,-139 -39,-328 -51,-363 -10,-29 -8,4 16,333 8,105 17,327 22,495 9,355 20,309 22,-95 z m 543,-152 c 0,-170 -13,-419 -27,-543 -16,-137 -62,-420 -70,-428 -11,-12 -13,6 -4,51 7,41 18,145 55,527 8,87 8,89 19,323 5,116 11,175 18,168 5,-5 9,-49 9,-98 z m -1717,-608 c 214,-55 513,-120 688,-151 53,-9 97,-20 97,-25 0,-12 13,-13 -168,16 -328,53 -504,93 -735,169 -59,19 -115,40 -125,46 -20,13 -40,18 243,-55 z m 265,-579 c 240,-21 504,-35 830,-43 323,-8 294,-19 -70,-26 -268,-5 -372,0 -710,39 -246,27 -270,31 -270,46 0,6 10,8 23,5 12,-3 101,-13 197,-21 z"
         style="display:inline"
         sodipodi:insensitive="true" />
      <path
         id="p1FM7bodw5"
         d="m 2673,11021 c -48,-12 -120,-58 -165,-104 -36,-38 -45,-41 -95,-43 -151,-6 -304,-151 -370,-352 -24,-76 -28,-102 -27,-202 1,-179 21,-232 152,-404 89,-117 100,-207 49,-416 -106,-434 -163,-854 -166,-1232 0,-71 -5,-128 -10,-128 -15,0 -71,120 -71,151 0,16 11,62 25,103 30,89 34,227 10,321 -36,138 -151,305 -231,336 -59,22 -136,29 -204,17 -67,-11 -68,-11 -100,15 -17,15 -57,34 -87,43 -116,34 -246,-8 -338,-108 -68,-73 -89,-134 -84,-247 3,-65 9,-84 32,-120 26,-39 28,-46 16,-74 -7,-17 -12,-61 -11,-97 5,-178 186,-359 407,-405 109,-23 162,-19 257,17 73,28 95,32 178,32 81,0 103,-4 153,-27 l 57,-27 1,-197 c 0,-242 3,-289 29,-520 25,-223 60,-435 101,-611 17,-73 29,-135 27,-138 -10,-9 -59,39 -84,82 -23,40 -26,55 -28,171 -2,103 -7,140 -25,190 -46,128 -162,269 -270,327 -51,27 -58,28 -150,24 -81,-5 -104,-10 -145,-33 -48,-28 -48,-28 -79,-10 -22,13 -52,19 -107,19 -63,1 -84,-4 -135,-28 -72,-36 -141,-103 -175,-171 -21,-43 -25,-64 -25,-145 0,-107 15,-148 78,-209 28,-27 36,-41 35,-70 -2,-168 139,-315 359,-372 142,-37 292,-11 405,71 84,61 114,77 174,90 49,11 158,6 182,-9 6,-4 34,-83 61,-177 111,-378 269,-772 442,-1102 39,-74 68,-136 65,-139 -9,-10 -92,45 -128,85 -28,31 -37,50 -42,96 -21,166 -166,349 -346,435 -67,32 -83,36 -155,35 -89,0 -134,-18 -214,-82 -39,-32 -49,-35 -98,-33 -130,5 -241,-66 -306,-198 -28,-58 -32,-75 -32,-146 0,-71 4,-89 33,-147 32,-65 65,-98 129,-132 18,-9 33,-24 33,-34 1,-33 42,-107 83,-150 71,-73 178,-118 306,-128 96,-8 172,7 269,51 99,46 125,66 183,143 73,97 138,134 260,147 l 65,7 59,-99 c 175,-293 399,-601 632,-865 97,-111 102,-118 76,-118 -37,1 -111,35 -146,68 -15,14 -32,42 -37,62 -12,45 -94,146 -168,206 -149,123 -389,173 -514,108 -45,-23 -116,-92 -144,-140 -22,-37 -30,-42 -70,-48 -191,-26 -322,-269 -247,-461 45,-116 95,-165 208,-203 40,-14 62,-28 74,-48 32,-52 84,-97 150,-127 53,-25 80,-31 160,-35 157,-7 256,24 395,126 76,56 112,105 156,213 15,37 41,85 58,107 32,40 153,112 188,112 10,0 88,-69 173,-153 281,-275 552,-499 846,-698 l 110,-74 -62,-3 c -78,-4 -130,21 -171,80 -46,66 -176,160 -268,192 -110,38 -282,45 -379,14 -61,-19 -154,-118 -190,-201 -24,-59 -32,-68 -62,-76 -96,-27 -179,-149 -190,-279 -10,-117 22,-205 104,-284 58,-57 130,-90 201,-93 46,-2 59,-8 90,-38 62,-59 115,-80 216,-85 53,-3 111,1 145,8 88,20 201,83 265,148 100,101 129,156 151,283 19,109 48,163 127,234 67,60 86,64 140,28 195,-133 638,-350 983,-483 82,-32 151,-63 153,-68 5,-15 -91,-25 -133,-13 -20,5 -55,25 -78,44 -164,134 -440,166 -641,74 -98,-45 -172,-151 -183,-265 -6,-52 -10,-59 -73,-121 -87,-85 -105,-136 -97,-260 8,-112 48,-196 122,-254 83,-66 125,-79 235,-75 88,3 99,1 153,-26 75,-38 173,-46 249,-21 175,56 287,151 364,310 l 49,100 v 145 c 0,139 1,147 29,203 15,32 45,76 65,97 l 36,38 75,-24 c 345,-113 911,-229 1223,-250 64,-5 96,-11 94,-18 -4,-14 -123,-55 -159,-56 -14,0 -56,16 -92,35 -69,36 -216,75 -285,75 -79,0 -216,-31 -286,-65 -149,-72 -204,-153 -213,-313 -5,-88 -6,-94 -38,-127 -54,-57 -74,-115 -74,-211 0,-155 63,-263 190,-326 41,-20 93,-39 116,-43 43,-6 119,8 166,31 23,12 32,11 75,-8 36,-16 67,-21 124,-21 66,0 85,5 140,33 142,71 229,160 283,286 61,141 67,211 31,378 -16,72 -16,83 -2,142 9,34 33,91 54,126 l 37,63 471,1 c 275,0 499,5 540,11 39,6 74,7 78,3 10,-9 -452,-462 -675,-664 -93,-82 -168,-153 -168,-157 0,-4 35,-10 78,-14 258,-21 428,-42 862,-109 725,-112 1208,-82 1753,108 507,177 963,442 1432,832 150,125 510,481 641,634 149,174 344,432 344,455 0,7 -22,9 -72,4 -110,-11 -405,-10 -563,2 -77,6 -270,14 -430,17 -1091,27 -1904,-119 -2415,-433 -175,-107 -357,-255 -575,-466 l -120,-116 -130,-11 c -314,-29 -461,-34 -729,-29 -228,5 -282,9 -294,21 -19,19 -28,148 -13,201 6,22 31,75 57,117 57,96 74,158 74,268 -1,106 -11,151 -57,248 -26,56 -55,95 -102,143 -79,79 -147,109 -245,109 -54,0 -67,4 -92,27 -15,14 -53,37 -82,51 -47,21 -64,24 -136,20 -56,-3 -95,-12 -128,-27 -147,-71 -237,-240 -201,-378 8,-31 21,-66 29,-79 14,-20 13,-27 -6,-69 -30,-66 -37,-167 -16,-239 24,-81 136,-198 244,-254 130,-68 290,-95 392,-68 48,13 59,12 95,-2 56,-22 85,-42 85,-59 0,-10 -8,-12 -32,-8 -18,3 -91,12 -163,20 -166,20 -433,67 -600,106 -282,66 -536,141 -556,165 -8,10 -10,36 -6,82 9,107 31,154 109,239 80,86 112,148 134,260 47,240 -69,492 -257,558 -23,8 -53,15 -68,15 -19,0 -39,15 -73,54 -68,78 -120,100 -233,100 -80,1 -97,-3 -149,-28 -70,-35 -147,-110 -178,-174 -26,-56 -35,-150 -18,-200 11,-35 9,-41 -23,-94 -39,-66 -62,-158 -55,-223 15,-125 158,-301 300,-368 99,-47 174,-67 248,-67 52,0 68,-5 105,-30 58,-40 104,-94 82,-98 -21,-4 -321,112 -487,188 -230,105 -659,337 -703,379 -11,11 10,97 39,156 33,65 64,97 146,151 85,57 131,108 167,188 59,132 75,222 56,330 -28,159 -93,255 -207,309 -41,20 -56,33 -65,59 -29,79 -111,145 -216,172 -105,27 -247,-15 -331,-98 -51,-52 -86,-130 -86,-194 0,-51 -3,-57 -48,-107 -27,-29 -61,-79 -77,-112 -25,-53 -27,-66 -22,-138 11,-181 140,-360 332,-461 37,-18 79,-34 93,-34 46,0 99,-45 133,-111 17,-34 28,-63 25,-66 -12,-12 -333,215 -516,366 -239,196 -580,518 -580,548 0,24 37,87 80,136 48,54 96,82 169,98 120,26 254,149 312,289 80,191 51,393 -70,489 -32,25 -42,41 -50,82 -15,69 -43,119 -88,160 -73,66 -109,82 -195,87 -109,6 -192,-17 -253,-70 -50,-44 -105,-130 -105,-164 0,-15 -12,-26 -40,-39 -48,-22 -137,-110 -164,-163 -45,-86 -27,-271 38,-405 44,-89 142,-200 206,-232 27,-14 58,-38 69,-54 26,-36 56,-150 44,-162 -12,-12 -271,293 -412,485 -114,155 -236,337 -326,489 l -58,98 47,48 c 74,75 132,100 257,109 90,7 113,13 165,41 140,74 219,164 269,308 41,115 28,253 -31,323 -22,26 -26,41 -28,108 -1,57 -8,88 -24,120 -34,65 -85,115 -149,148 -51,26 -68,29 -148,29 -129,0 -200,-35 -260,-130 -22,-36 -36,-47 -69,-55 -149,-37 -229,-127 -256,-288 -20,-123 2,-240 72,-375 24,-46 55,-89 75,-104 38,-30 53,-52 64,-103 9,-40 1,-120 -13,-120 -15,0 -240,467 -315,655 -109,274 -233,653 -233,714 0,17 14,29 65,52 78,37 151,41 269,14 97,-22 163,-13 281,36 66,28 94,47 157,110 96,94 131,161 136,266 3,49 -1,87 -13,122 -16,48 -16,54 1,98 29,76 24,139 -19,226 -33,67 -44,80 -105,120 -133,90 -286,86 -384,-10 -31,-31 -41,-35 -70,-29 -43,7 -158,-17 -207,-45 -70,-39 -141,-155 -171,-279 -28,-112 -4,-308 47,-384 14,-22 28,-56 30,-76 6,-46 -24,-147 -39,-132 -25,25 -98,412 -132,698 -23,188 -45,516 -46,666 v 57 l 54,12 c 96,21 170,9 277,-44 110,-56 170,-66 286,-47 237,38 418,220 401,402 -5,44 -1,56 28,99 49,73 61,139 40,230 -21,93 -71,160 -157,212 -95,56 -201,62 -290,17 -41,-21 -43,-21 -96,-5 -39,13 -76,16 -127,13 -61,-4 -80,-10 -128,-41 -131,-84 -237,-289 -238,-461 0,-26 7,-76 16,-109 13,-50 14,-69 4,-101 -12,-41 -50,-106 -62,-106 -10,0 1,278 18,460 31,324 73,579 148,883 37,153 54,181 145,234 40,23 51,25 113,19 131,-12 301,42 436,139 144,103 243,254 242,369 -1,68 -26,161 -58,219 -31,55 -31,56 -14,89 12,23 17,57 17,113 0,71 -4,89 -32,145 -42,84 -118,162 -196,202 -53,27 -75,31 -152,34 -49,2 -104,0 -122,-5 z m 77,-542 c 0,-20 -20,-55 -65,-114 -109,-143 -263,-401 -310,-520 -45,-116 -60,-113 -26,5 73,256 286,661 353,672 32,5 48,-9 48,-43 z M 1449,8704 c 18,-19 44,-54 58,-77 60,-93 267,-322 348,-384 71,-55 32,-44 -51,14 -160,113 -326,267 -404,374 -63,88 -20,152 49,73 z m 1357,-129 c 21,-53 -128,-189 -371,-338 -103,-63 -154,-89 -167,-85 -6,2 13,19 43,38 83,52 289,231 370,320 73,81 112,100 125,65 z m 43,-1343 c 26,-49 -133,-276 -323,-461 -48,-46 -89,-81 -92,-78 -4,3 18,34 48,69 92,108 248,340 248,371 0,5 15,33 32,63 35,57 68,71 87,36 z M 1497,6984 c 12,-8 45,-34 72,-58 84,-74 299,-213 415,-267 122,-57 59,-49 -87,10 -189,78 -381,184 -449,248 -69,66 -31,117 49,67 z M 3224,5924 c 22,-21 20,-36 -13,-150 -34,-119 -73,-213 -147,-354 -56,-106 -107,-177 -85,-118 6,15 19,44 29,65 33,64 111,320 134,436 25,129 45,159 82,121 z M 2032,5289 c 125,-63 415,-158 531,-174 61,-8 53,-24 -10,-19 -191,17 -347,46 -468,87 -121,42 -153,58 -169,82 -14,22 -14,25 0,39 22,23 47,20 116,-15 z m 1842,-415 c 3,-9 6,-64 6,-122 0,-120 -26,-289 -65,-432 -36,-131 -36,-130 -47,-130 -5,0 -7,8 -4,18 28,97 49,364 40,523 -4,70 -4,135 -1,143 8,21 63,21 71,0 z m -989,-943 c 95,-15 169,-19 353,-17 192,1 228,-1 204,-11 -36,-15 -193,-39 -343,-52 -111,-11 -324,1 -358,18 -45,25 -49,66 -8,74 12,2 24,5 27,5 3,1 59,-7 125,-17 z m 1909,-16 c 24,-50 64,-233 76,-345 12,-114 13,-320 2,-320 -4,0 -13,44 -20,98 -18,136 -57,307 -103,446 -22,65 -37,127 -34,137 4,13 16,19 35,19 22,0 31,-7 44,-35 z m 1069,-647 c 70,-93 162,-321 217,-537 27,-107 21,-137 -10,-46 -34,103 -159,356 -229,464 -34,52 -61,100 -61,107 0,53 47,60 83,12 z M 4616,2873 c -56,-30 -284,-113 -377,-137 -197,-50 -309,-54 -326,-10 -12,33 20,46 148,56 128,9 434,65 504,92 22,8 49,15 60,15 16,0 14,-3 -9,-16 z m 2533,8 c 27,-15 154,-178 211,-272 69,-112 164,-303 158,-319 -2,-7 -17,12 -33,41 -45,83 -229,322 -309,402 -85,84 -109,118 -100,141 7,18 45,21 73,7 z m 5311,-35 c -37,-36 -476,-274 -775,-421 -294,-145 -694,-326 -950,-430 -346,-140 -929,-326 -1315,-419 -306,-73 -893,-181 -887,-162 2,5 100,31 218,58 413,92 649,155 994,263 99,32 232,73 295,92 63,19 162,52 220,74 58,21 213,77 345,124 249,90 314,116 730,295 350,151 528,234 850,397 154,78 282,142 285,143 2,0 -2,-6 -10,-14 z m -1805,-77 c 385,-36 917,-37 1385,-4 l 65,5 -41,-14 c -73,-24 -333,-57 -544,-68 -437,-22 -786,6 -1262,103 -94,19 -58,26 64,12 62,-7 212,-23 333,-34 z m 1449,-261 c -11,-13 -81,-93 -156,-178 -267,-305 -525,-530 -868,-755 -152,-99 -226,-143 -216,-127 4,7 33,30 65,51 88,60 372,282 506,396 154,131 267,236 490,457 99,98 184,178 189,178 5,0 1,-10 -10,-22 z M 5945,2230 c -53,-59 -346,-238 -480,-294 -115,-48 -169,-56 -184,-28 -19,36 14,58 159,106 136,44 395,162 460,209 44,32 72,36 45,7 z m 4890,-6 c -132,-36 -437,-78 -695,-96 -185,-12 -338,-6 -715,27 -244,22 -311,36 -125,27 80,-4 318,-7 530,-7 389,1 713,18 897,49 43,8 96,14 118,14 h 40 z m 110,-266 c -317,-344 -588,-538 -1007,-723 -219,-96 -221,-88 -8,30 364,203 619,379 943,652 55,46 102,83 105,83 3,0 -12,-19 -33,-42 z m -3521,-60 c -63,-106 -354,-348 -512,-426 l -72,-36 -22,22 -22,22 25,26 c 13,14 60,44 104,66 145,73 413,254 469,317 21,23 42,29 30,9 z"
         style="display:inline"
         sodipodi:insensitive="true" />
    </g>
  </g>
</svg>
