<svg class="img-fluid" id="outputsvg" xmlns="http://www.w3.org/2000/svg" style="transform: none; transform-origin: 50% 50%; cursor: move; max-height: none;" width="1604" height="1596" viewBox="0 0 16040 15960"><g id="l60FJWVNG41e3w7VekidJKd" fill="none" stroke="rgb(182,167,153)" stroke-width="10" style="transform: none;"><g style="transform: none;"><path id="pkXyG5vMN" d="M0 7980 l0 -7980 8020 0 8020 0 0 7980 0 7980 -8020 0 -8020 0 0 -7980z m8625 7135 c22 -13 52 -35 66 -49 23 -22 33 -25 95 -24 55 1 81 -4 126 -24 131 -60 242 -231 257 -395 13 -132 -6 -204 -80 -306 -40 -55 -59 -126 -59 -220 l0 -79 -34 30 c-51 44 -96 56 -185 47 -42 -4 -96 -7 -121 -6 -194 5 -430 163 -484 324 -21 64 -20 85 9 169 28 81 31 115 12 143 -8 11 -19 41 -26 67 -11 40 -11 54 4 100 65 198 272 308 420 223z m-1880 -100 c70 -29 90 -30 154 -9 88 29 190 -3 294 -93 107 -92 160 -184 190 -330 12 -58 12 -76 0 -123 -8 -30 -21 -81 -29 -113 -12 -47 -13 -76 -5 -140 5 -45 13 -92 17 -104 6 -23 6 -23 -30 -8 -56 24 -176 20 -221 -7 -86 -50 -232 -61 -349 -27 -232 69 -338 193 -322 379 7 73 6 77 -20 105 -37 40 -74 122 -74 165 0 70 41 160 104 227 49 53 68 66 120 82 80 26 99 25 171 -4z m3611 -225 c51 -22 105 -69 129 -114 15 -28 28 -37 64 -46 126 -31 218 -133 265 -289 45 -151 -11 -361 -121 -460 -26 -24 -62 -57 -80 -73 -17 -15 -43 -51 -56 -79 l-24 -51 -6 83 c-6 92 -36 249 -73 376 -30 105 -99 264 -121 281 -20 14 -62 16 -97 2 -23 -8 -26 -15 -26 -60 0 -40 9 -67 49 -142 69 -132 156 -364 191 -505 10 -41 13 -43 47 -43 34 0 35 -1 29 -31 -3 -17 -6 -39 -6 -48 0 -9 -19 6 -46 37 -55 63 -89 82 -144 82 -85 0 -276 94 -346 171 -76 85 -131 174 -152 252 -15 53 14 144 69 221 l41 58 -6 71 c-7 67 -5 76 24 134 31 63 97 130 155 161 81 42 161 46 241 12z m1583 -760 c32 -16 73 -44 91 -62 31 -31 80 -119 80 -145 0 -6 24 -25 54 -42 126 -70 195 -239 166 -401 -15 -82 -79 -212 -136 -278 -31 -35 -70 -63 -132 -96 -53 -27 -104 -62 -125 -85 l-36 -40 7 32 c12 56 8 596 -6 661 -16 79 -33 96 -93 96 -80 0 -85 -32 -34 -255 31 -136 50 -328 46 -457 l-3 -98 37 0 c30 0 35 -3 26 -14 -6 -7 -17 -31 -25 -52 -9 -24 -15 -32 -16 -19 -1 31 -38 107 -67 137 -15 16 -52 37 -82 49 -66 24 -175 103 -230 165 -86 98 -160 293 -142 375 14 62 71 148 127 192 48 38 52 44 58 95 18 151 156 270 314 271 50 1 74 -5 121 -29z m-3439 -35 c96 -9 229 -23 295 -31 224 -29 245 -29 245 -8 0 16 3 15 13 -6 11 -21 26 -27 127 -46 164 -31 466 -107 590 -149 132 -44 105 -39 -75 14 -207 60 -478 121 -575 128 -47 3 -88 11 -92 16 -7 11 -54 18 -329 47 -411 43 -746 48 -1117 18 -131 -10 -145 -13 -152 -32 -7 -17 -9 -18 -9 -3 -1 23 -33 22 -243 -8 -285 -41 -533 -95 -817 -176 -212 -61 -234 -70 -266 -106 -55 -63 -65 -101 -63 -250 1 -113 -3 -152 -20 -217 -25 -91 -92 -212 -159 -286 -47 -52 -146 -127 -196 -148 -50 -21 -155 -15 -222 15 -87 37 -128 40 -184 12 -67 -34 -138 -32 -221 7 -91 43 -169 117 -210 201 -29 59 -34 78 -35 143 0 65 4 82 30 129 17 30 47 72 67 94 36 39 37 43 36 112 0 65 3 79 38 145 67 128 206 226 384 272 78 19 93 20 180 9 108 -13 167 -38 255 -105 77 -59 160 -86 267 -86 66 0 109 9 266 54 340 99 597 156 887 195 83 12 172 25 198 31 27 5 83 10 125 11 42 1 104 5 137 9 115 14 661 11 845 -5z m-1040 -376 c69 -109 88 -155 95 -235 7 -67 4 -85 -19 -157 -34 -102 -71 -161 -146 -231 -67 -62 -137 -91 -213 -87 -39 2 -54 -3 -79 -24 -47 -40 -123 -75 -162 -75 -49 0 -123 27 -173 62 -42 31 -104 111 -122 161 -16 41 -13 117 4 151 21 39 19 111 -5 174 -40 105 -17 175 95 288 124 127 301 191 447 164 80 -15 136 -4 195 41 l38 28 5 -103 c5 -96 7 -106 40 -157z m1183 231 c31 -6 82 -23 113 -37 47 -21 66 -25 118 -21 34 3 76 13 94 22 l33 17 -16 -37 c-25 -59 -20 -196 10 -288 29 -89 30 -111 10 -191 -38 -147 -140 -282 -265 -350 -59 -31 -112 -36 -232 -20 -48 6 -64 4 -103 -15 -26 -13 -64 -23 -84 -23 -53 0 -151 48 -199 96 -49 50 -94 152 -94 213 0 46 37 127 72 159 20 18 21 25 15 96 -14 158 46 253 205 328 123 57 211 71 323 51z m1462 -206 c24 -11 25 -13 5 -8 -14 4 -38 13 -55 20 -24 11 -25 13 -5 8 14 -4 39 -13 55 -20z m95 -36 c10 -6 7 -7 -10 -2 -14 3 -32 11 -40 16 -10 6 -7 7 10 2 14 -3 32 -11 40 -16z m-237 -44 c78 -20 167 -65 216 -109 50 -46 79 -55 167 -55 l74 0 -27 -42 c-28 -41 -28 -41 -31 -15 -3 23 -8 27 -34 27 -17 0 -63 -18 -102 -39 -136 -76 -296 -139 -445 -177 -51 -13 -99 -29 -107 -35 -8 -7 -14 -31 -14 -60 0 -39 4 -50 22 -60 70 -38 342 69 589 231 41 27 75 47 77 46 1 -2 -2 -15 -8 -30 -5 -15 -10 -73 -9 -129 1 -114 -7 -139 -73 -243 -66 -106 -171 -185 -297 -224 -83 -26 -156 -13 -234 42 -24 17 -37 19 -102 13 -68 -7 -80 -5 -127 18 -118 58 -179 146 -186 268 -4 59 -1 74 24 120 31 56 89 119 110 119 13 0 34 58 34 93 0 26 45 111 82 152 76 88 254 127 401 89z m513 -54 c23 0 34 -5 34 -15 0 -7 8 -19 18 -24 14 -9 11 -10 -15 -11 -21 0 -33 5 -33 14 0 7 -15 20 -32 28 -18 8 -27 13 -20 11 8 -2 29 -3 48 -3z m631 -536 c162 -33 298 -125 386 -260 37 -57 90 -89 159 -98 l50 -7 -39 -28 -38 -28 -3 24 c-3 20 -9 23 -50 23 -26 0 -63 -5 -82 -10 -68 -21 -287 -40 -454 -40 -144 0 -172 -3 -188 -17 -25 -22 -24 -77 3 -104 20 -20 29 -21 183 -17 170 5 267 21 458 77 l98 28 -20 -32 c-11 -17 -27 -61 -36 -96 -42 -164 -156 -289 -326 -355 -61 -24 -88 -29 -163 -29 -84 0 -94 2 -155 36 -41 22 -74 49 -89 72 -16 24 -32 37 -46 37 -34 0 -131 35 -168 60 -47 32 -105 127 -119 193 -9 44 -9 67 1 109 26 108 120 211 203 225 34 5 42 12 64 55 50 99 128 166 214 184 73 16 70 16 157 -2z m2072 -29 c71 -17 142 -63 189 -123 31 -38 62 -126 62 -172 0 -18 14 -40 46 -70 65 -63 104 -148 104 -227 0 -148 -53 -268 -169 -384 -87 -88 -130 -112 -244 -140 -45 -11 -98 -31 -118 -44 l-36 -23 24 65 c72 200 113 408 113 582 0 135 -8 151 -76 151 -31 0 -46 -5 -52 -17 -5 -10 -12 -97 -15 -193 -7 -182 -35 -409 -61 -495 -9 -27 -16 -62 -16 -77 0 -25 3 -28 36 -28 l36 0 -28 -33 c-16 -18 -37 -44 -46 -57 -17 -25 -17 -25 -18 35 -1 90 -34 155 -98 190 -96 52 -190 180 -233 319 -54 172 -40 280 51 379 42 46 72 66 160 107 8 4 17 20 21 36 15 72 96 167 166 195 23 10 113 35 133 38 3 0 34 -6 69 -14z m-1347 -275 c4 -26 1 -30 -18 -30 -17 0 -23 7 -26 30 -4 26 -1 30 18 30 17 0 23 -7 26 -30z m356 -631 c78 -27 186 -93 239 -145 58 -59 120 -157 139 -219 17 -62 50 -96 124 -128 l55 -24 -45 -20 -45 -19 -3 31 -3 32 -127 6 c-155 7 -308 30 -423 62 -111 32 -189 41 -217 26 -18 -10 -22 -21 -22 -61 0 -45 3 -52 30 -69 53 -32 253 -56 465 -56 105 0 209 4 233 8 l43 7 -36 -31 c-20 -18 -55 -66 -77 -108 -54 -100 -125 -168 -230 -219 -138 -66 -237 -73 -381 -26 -58 19 -147 98 -172 153 -15 34 -28 45 -80 70 -116 54 -185 157 -185 276 0 42 8 68 36 122 61 117 128 168 239 182 53 6 69 12 83 32 40 58 122 118 192 140 33 11 98 2 168 -22z m-3306 -171 c37 -24 73 -60 96 -95 l37 -56 0 -291 c0 -177 -5 -322 -12 -371 -8 -50 -14 -266 -18 -573 l-5 -493 117 -58 c157 -77 371 -189 409 -215 196 -131 314 -234 361 -313 22 -39 29 -43 63 -43 38 0 40 2 104 98 61 94 278 336 485 543 81 81 89 87 148 99 71 14 87 13 208 -25 81 -26 107 -29 271 -33 198 -4 351 9 599 54 133 23 152 24 340 17 l200 -8 -230 -114 c-126 -62 -266 -129 -310 -148 -153 -65 -181 -78 -330 -157 -82 -43 -213 -111 -290 -151 -77 -40 -192 -104 -255 -142 -63 -39 -131 -78 -150 -88 -61 -31 -242 -155 -349 -239 -57 -44 -158 -138 -223 -209 -113 -120 -119 -129 -116 -165 l3 -37 90 -8 c105 -9 331 4 600 33 291 32 311 30 411 -51 35 -29 64 -54 64 -56 0 -14 -69 -99 -131 -162 -127 -128 -495 -348 -681 -409 -74 -24 -96 -22 -263 18 -44 11 -147 31 -230 45 -82 14 -192 35 -242 45 -156 33 -157 33 -244 -62 -41 -46 -133 -152 -203 -235 -70 -84 -132 -155 -137 -158 -5 -4 -9 -24 -9 -46 0 -34 4 -41 28 -50 64 -25 389 -39 691 -30 94 2 96 2 176 -39 44 -23 91 -51 104 -61 l24 -19 -18 -48 c-44 -116 -88 -185 -179 -279 -46 -48 -54 -53 -94 -53 -50 0 -118 16 -281 66 -140 44 -370 94 -428 94 -42 0 -43 -1 -43 -34 0 -32 5 -37 83 -82 104 -61 384 -250 552 -373 72 -53 149 -109 171 -124 23 -15 52 -39 64 -52 22 -24 23 -26 8 -57 -9 -18 -27 -60 -40 -93 -14 -33 -42 -84 -64 -114 -21 -29 -55 -75 -74 -101 -33 -45 -111 -114 -173 -153 -31 -20 -32 -19 -41 59 -14 118 -113 355 -222 526 -163 259 -274 414 -383 530 -48 51 -59 58 -93 58 l-38 0 0 -50 c0 -53 20 -178 95 -590 24 -135 47 -282 51 -328 l7 -82 -85 -84 c-89 -88 -184 -144 -282 -166 -25 -5 -66 -20 -91 -32 -43 -21 -45 -24 -45 -64 0 -39 4 -44 58 -85 31 -24 85 -69 118 -100 l61 -57 89 -8 c49 -5 391 -8 759 -8 513 1 708 5 830 16 149 14 165 14 245 -3 101 -21 126 -30 180 -64 l40 -25 -15 -38 c-24 -56 -105 -132 -255 -241 -384 -278 -565 -363 -744 -348 -39 4 -123 22 -186 42 -145 44 -328 85 -386 85 l-44 0 0 -38 c0 -25 10 -53 33 -87 89 -135 160 -267 164 -308 4 -38 -2 -51 -57 -135 -72 -107 -186 -212 -305 -279 -101 -56 -161 -98 -221 -156 l-52 -49 -5 164 c-4 141 -9 178 -35 273 -56 203 -116 357 -261 667 -31 67 -46 89 -63 92 -13 2 -57 9 -98 15 -41 6 -214 31 -385 56 -170 24 -374 51 -453 60 -79 8 -162 19 -185 24 -23 5 -123 17 -221 26 -202 20 -197 21 -211 -53 -15 -87 -69 -235 -104 -289 -42 -65 -92 -115 -197 -197 -77 -59 -250 -171 -288 -186 -13 -5 -58 -25 -99 -44 -57 -28 -94 -38 -153 -43 l-77 -6 7 49 c8 52 48 209 73 284 35 104 115 262 187 369 66 98 76 119 76 157 0 24 -3 44 -7 44 -5 0 -111 12 -238 25 -361 39 -733 51 -1046 36 -144 -7 -263 -10 -266 -8 -5 6 30 74 54 104 10 12 56 46 103 75 47 30 144 101 216 158 379 303 399 317 484 331 87 15 198 5 295 -27 246 -79 718 -204 770 -204 29 0 39 7 67 48 17 26 50 70 73 98 22 28 67 88 100 133 83 113 84 115 90 110 2 -3 -4 -102 -15 -220 -11 -118 -20 -220 -20 -227 0 -19 38 -30 219 -62 341 -59 636 -98 814 -107 l127 -6 0 32 c0 21 -14 55 -37 92 -70 111 -204 291 -290 392 -50 57 -76 94 -62 87 172 -90 560 -327 574 -350 4 -6 24 -10 45 -10 37 0 39 2 54 48 19 61 46 418 46 622 l0 160 -32 14 -33 14 33 1 c24 1 32 5 32 20 0 33 -48 502 -55 536 -4 18 -19 23 -102 37 -54 10 -135 20 -180 23 l-83 6 0 -47 c0 -38 6 -54 33 -88 42 -50 53 -72 78 -144 26 -76 87 -175 149 -242 28 -30 56 -63 61 -73 10 -17 9 -17 -18 -3 -48 24 -263 94 -341 111 -40 8 -100 15 -132 15 -51 0 -64 -4 -102 -33 -101 -77 -244 -165 -253 -155 -7 7 95 239 173 395 57 112 91 169 112 184 25 19 30 30 30 62 l0 40 -72 -6 c-40 -4 -138 -18 -218 -32 -80 -14 -172 -30 -205 -35 -33 -6 -71 -13 -85 -16 l-25 -6 26 29 c14 15 51 62 81 103 110 149 324 344 445 406 93 47 136 44 309 -16 82 -29 168 -55 192 -57 l42 -5 0 48 c0 81 -59 275 -169 554 l-29 75 -76 12 c-350 54 -1063 90 -1223 62 l-73 -13 0 -45 c0 -26 5 -102 10 -171 6 -69 15 -199 21 -290 10 -160 17 -216 59 -480 11 -69 27 -179 35 -245 16 -127 33 -190 72 -269 15 -30 22 -54 17 -65 -4 -9 -13 -41 -18 -71 -10 -46 -17 -58 -52 -85 -199 -147 -294 -219 -336 -255 -20 -17 -56 -40 -80 -52 -24 -11 -60 -36 -80 -55 -49 -47 -66 -42 -169 52 -108 100 -146 118 -384 185 -44 12 -125 36 -180 52 -111 34 -148 34 -445 5 -115 -12 -139 -12 -163 0 -21 11 -27 19 -21 31 4 9 11 46 16 82 4 36 13 95 18 132 6 37 10 154 11 260 0 106 4 265 8 353 14 279 -7 1030 -44 1600 -17 270 -70 616 -108 707 -8 18 -17 51 -21 73 -11 59 -111 363 -163 495 -24 63 -66 174 -93 245 -27 72 -58 151 -69 178 -12 26 -30 68 -42 94 l-20 47 22 -19 c23 -21 138 -153 202 -233 110 -137 341 -505 378 -602 118 -310 239 -776 239 -916 0 -53 8 -64 50 -64 34 0 39 4 55 40 18 40 76 100 96 100 11 0 75 -27 229 -95 143 -63 262 -88 420 -89 l125 -1 1 155 c1 85 3 497 5 915 l4 760 -47 -1 c-34 0 -59 -8 -92 -30 -26 -16 -108 -68 -184 -117 -75 -48 -148 -95 -162 -105 l-24 -17 20 35 c186 312 333 599 369 720 8 25 31 94 53 155 l39 110 44 16 c24 9 87 38 139 65 91 46 98 48 170 46 64 -2 82 -7 129 -35 72 -43 101 -73 140 -146 37 -70 37 -62 7 -296 -18 -144 -29 -255 -51 -515 -8 -96 -22 -215 -30 -265 -8 -49 -15 -112 -15 -140 0 -27 -7 -90 -15 -140 -7 -49 -17 -125 -21 -167 l-7 -77 34 -20 34 -21 -32 0 -33 0 0 -62 c0 -35 -4 -90 -10 -123 -18 -114 -41 -451 -50 -735 -5 -157 -12 -322 -16 -367 l-7 -83 41 0 c37 0 43 4 89 63 27 34 70 96 96 138 59 94 75 110 170 158 l77 39 53 -13 c76 -20 308 -72 408 -90 114 -22 133 -19 137 21 2 25 -11 50 -74 135 -43 57 -114 145 -157 194 -44 50 -106 124 -140 165 -99 124 -193 228 -338 372 -146 146 -145 146 51 15 102 -68 204 -142 412 -296 90 -66 103 -73 138 -69 l40 4 1 -41 c1 -38 6 -45 93 -124 98 -88 227 -216 392 -390 112 -117 151 -140 237 -141 48 0 57 3 57 18 0 10 11 56 24 102 42 145 62 314 87 735 14 241 2 984 -24 1460 l-12 220 -35 3 c-45 4 -137 -43 -200 -102 -46 -42 -169 -149 -204 -176 -14 -10 -6 10 23 65 176 332 224 438 260 579 17 63 29 88 62 125 61 67 91 90 117 91 13 0 42 9 65 19 54 24 68 27 135 22 46 -2 67 -11 114 -43z m5322 -274 c66 -32 143 -110 176 -179 20 -41 22 -55 15 -128 -6 -82 -6 -83 24 -121 27 -33 53 -99 62 -156 6 -36 -16 -121 -51 -197 -43 -92 -104 -163 -196 -229 -99 -71 -143 -85 -284 -94 -69 -5 -138 -14 -155 -20 l-30 -11 22 23 c60 65 208 359 258 513 56 170 44 245 -40 245 -48 0 -69 -27 -89 -118 -40 -179 -115 -393 -187 -533 -21 -42 -39 -90 -39 -108 0 -27 4 -31 26 -31 l26 0 -29 -23 c-69 -55 -64 -56 -57 5 3 29 1 79 -5 109 -10 45 -20 64 -57 100 -52 50 -115 167 -138 256 -19 74 -20 188 -2 265 35 146 127 235 279 269 44 9 63 19 75 38 89 146 251 196 396 125z m-1314 -33 c0 -25 -3 -28 -25 -23 -18 3 -25 11 -25 28 0 19 5 24 25 24 21 0 25 -5 25 -29z m-2175 -275 c39 -10 65 -22 75 -36 8 -12 32 -41 52 -64 l37 -42 -72 -82 c-100 -113 -227 -217 -432 -352 -166 -110 -296 -186 -361 -213 -32 -14 -113 -47 -179 -75 -164 -67 -517 -185 -647 -215 -60 -13 -108 -23 -108 -22 0 2 17 14 38 26 64 39 269 198 344 268 40 36 110 99 155 138 45 39 138 134 207 211 69 77 153 160 188 185 35 25 77 57 93 70 44 35 148 86 244 118 46 16 104 40 129 55 80 47 134 54 237 30z m-2906 -121 c43 -42 77 -89 112 -152 37 -68 56 -93 70 -93 15 0 19 -7 19 -37 0 -29 12 -52 62 -116 57 -74 142 -221 188 -327 11 -25 32 -67 46 -94 51 -98 48 -98 -79 -2 -67 50 -158 114 -202 141 -44 28 -102 65 -130 83 -27 18 -95 56 -149 84 -92 47 -106 51 -187 56 -78 4 -95 2 -153 -22 -62 -24 -106 -33 -106 -20 0 3 4 13 10 23 5 10 18 65 29 122 22 123 56 218 100 288 28 43 41 54 91 72 33 12 67 30 77 41 15 17 28 19 79 16 59 -4 63 -6 123 -63z m-4890 -204 c161 -82 266 -284 208 -400 -25 -50 -21 -83 17 -153 18 -35 39 -91 45 -126 11 -57 10 -69 -9 -125 -31 -92 -116 -196 -222 -272 -133 -96 -261 -138 -416 -136 -82 1 -97 -1 -135 -23 -89 -52 -106 -81 -143 -233 -100 -407 -155 -803 -169 -1215 -6 -177 -5 -188 12 -189 17 -1 17 -2 1 -6 -15 -4 -18 -17 -18 -91 1 -368 56 -877 131 -1216 11 -49 18 -93 16 -99 -5 -15 -54 212 -82 376 -43 257 -66 507 -73 787 -16 617 31 1082 165 1630 31 129 34 156 30 240 -6 113 -22 161 -79 236 -91 119 -109 149 -129 216 -14 45 -22 100 -23 156 -4 256 196 522 392 522 52 0 58 2 97 44 47 48 119 94 168 107 59 15 151 2 216 -30z m9981 28 c99 -23 259 -150 326 -260 47 -78 84 -181 84 -235 0 -24 6 -59 14 -77 15 -37 66 -91 111 -119 l30 -18 -37 0 c-20 0 -43 -3 -52 -6 -11 -4 -15 3 -18 31 l-3 37 -85 25 c-125 36 -350 127 -467 190 -92 49 -107 54 -155 51 l-53 -3 -3 -56 c-4 -69 4 -77 126 -129 170 -73 388 -131 554 -147 l73 -6 -45 -16 c-33 -12 -69 -40 -131 -103 -94 -97 -142 -124 -275 -158 -68 -18 -89 -19 -146 -10 -119 18 -208 60 -290 136 -45 42 -63 77 -81 156 -7 32 -17 50 -33 57 -44 20 -102 82 -125 134 -49 111 -22 229 79 335 75 79 119 97 231 95 89 -2 95 -1 130 26 45 35 75 51 126 67 50 16 59 16 115 3z m629 -594 c0 -5 -6 1 -14 15 -8 14 -14 30 -14 35 0 6 6 -1 14 -15 8 -14 14 -29 14 -35z m60 -127 c0 -30 -1 -31 -9 -10 -5 12 -14 22 -20 22 -5 0 -10 14 -10 30 l0 30 20 -20 c12 -12 20 -33 19 -52z m35 -108 c5 -17 4 -20 -2 -10 -5 8 -13 26 -16 40 -5 17 -4 20 2 10 5 -8 13 -26 16 -40z m62 -166 c189 -532 318 -1231 312 -1694 l-1 -125 -8 170 c-10 213 -38 507 -50 520 -5 5 -9 30 -9 55 0 53 -39 283 -76 448 -39 173 -97 378 -164 577 -33 99 -60 182 -60 184 0 16 15 -21 56 -135z m-5306 67 c79 -26 80 -27 109 -74 23 -37 23 -41 11 -115 -14 -85 -44 -175 -64 -191 -7 -6 -61 -26 -122 -45 -60 -19 -147 -51 -194 -71 -47 -20 -107 -45 -135 -54 -56 -20 -274 -65 -281 -58 -3 3 14 19 37 38 85 67 217 228 268 328 56 107 127 195 166 205 15 4 47 20 73 36 26 16 52 28 57 26 6 -2 39 -13 75 -25z m6332 15 c62 -15 161 -78 195 -124 64 -87 85 -177 59 -252 -20 -58 -20 -109 1 -151 22 -44 29 -137 13 -185 -18 -57 -77 -152 -130 -208 -65 -71 -146 -120 -259 -156 l-99 -32 -80 16 c-43 9 -112 16 -152 16 l-73 0 89 93 c177 183 339 426 351 525 8 72 -6 92 -67 92 -44 0 -52 -3 -73 -32 -13 -18 -36 -63 -51 -99 -43 -105 -204 -366 -285 -464 -30 -36 -41 -59 -41 -82 0 -31 2 -33 38 -34 l37 0 -54 -20 c-29 -10 -60 -24 -68 -30 -11 -10 -12 -8 -3 15 5 15 10 69 10 120 0 76 -4 98 -19 117 -78 100 -110 282 -76 428 21 89 89 214 138 257 51 43 148 74 232 74 50 0 65 4 81 21 40 44 98 83 143 95 59 16 74 16 143 0z m-1268 -390 c100 -58 197 -171 252 -291 35 -76 51 -175 46 -276 -5 -92 8 -131 62 -196 l26 -30 -93 -5 c-101 -5 -141 -20 -224 -84 -77 -59 -120 -75 -224 -87 -93 -10 -99 -10 -183 17 -204 67 -336 213 -336 372 0 33 -7 48 -35 79 -58 60 -79 111 -80 185 0 57 5 73 37 131 66 118 172 189 278 189 30 -1 66 -7 80 -15 36 -21 95 -18 143 7 23 12 56 25 72 29 51 14 133 2 179 -25z m-12086 -591 c28 -9 65 -27 82 -42 30 -25 33 -26 135 -19 74 5 116 4 147 -6 62 -18 153 -113 200 -208 73 -149 86 -267 43 -396 -30 -89 -32 -172 -6 -229 l18 -40 -131 0 c-124 -1 -136 -3 -222 -35 l-90 -34 -85 17 c-174 34 -319 139 -389 280 -34 69 -33 65 -14 208 5 40 2 53 -22 88 -105 159 43 389 277 430 3 1 28 -6 57 -14z m1594 -179 c110 -39 198 -132 222 -233 12 -55 12 -66 -3 -111 -10 -28 -30 -67 -45 -87 -26 -33 -28 -43 -23 -91 18 -177 -158 -355 -391 -394 -91 -15 -137 -5 -242 52 -73 41 -78 42 -187 46 l-113 4 19 27 c44 63 51 132 25 236 -21 84 -7 175 45 282 97 200 240 295 371 249 58 -20 113 -20 153 1 68 35 111 40 169 19z m11921 -354 c186 -618 306 -1464 267 -1897 -20 -228 -49 -456 -77 -590 l-26 -130 -38 3 -37 4 -145 -220 c-157 -239 -339 -492 -482 -672 -96 -121 -423 -497 -469 -539 -19 -18 -26 -34 -26 -63 0 -37 1 -38 34 -38 32 0 52 17 224 188 380 377 598 666 860 1142 23 41 42 72 42 69 0 -16 -81 -244 -120 -334 -72 -171 -221 -431 -333 -585 -230 -315 -551 -641 -862 -874 -110 -83 -281 -196 -296 -196 -4 0 -10 89 -13 198 -13 399 -31 622 -87 1087 -77 633 -62 942 67 1333 99 303 253 562 546 921 78 95 76 86 87 356 l8 190 1 -177 2 -178 34 0 c31 0 43 10 130 109 151 173 258 310 346 443 80 121 267 483 292 566 7 23 15 42 18 42 3 0 26 -71 53 -158z m-11896 -962 c18 -5 59 -27 93 -51 50 -35 66 -54 95 -112 38 -76 43 -118 20 -174 -19 -46 -19 -98 1 -157 35 -102 -6 -210 -124 -325 -63 -63 -91 -82 -155 -109 -111 -46 -156 -53 -230 -34 -84 20 -240 20 -290 -1 -38 -16 -38 -16 -30 6 4 12 8 58 8 102 0 71 -3 85 -27 120 -31 45 -58 158 -58 238 0 96 43 214 108 299 53 70 120 100 231 106 83 4 87 6 127 42 37 34 72 51 129 63 21 4 46 1 102 -13z m-1198 -261 c110 -63 219 -199 263 -327 19 -55 23 -88 23 -187 0 -128 6 -149 59 -212 l25 -30 -78 -6 c-92 -6 -140 -25 -236 -94 -79 -57 -111 -70 -207 -83 -55 -8 -79 -6 -143 10 -206 53 -339 182 -352 342 -5 56 -10 68 -43 103 -57 61 -74 100 -75 175 0 80 29 144 95 211 87 87 221 127 286 85 33 -22 88 -20 137 6 90 49 170 51 246 7z m496 -746 c11 -3 15 -21 15 -55 0 -50 43 -213 100 -382 16 -49 28 -91 26 -93 -5 -6 -76 210 -121 367 -19 69 -40 127 -45 128 -6 2 -10 27 -9 55 1 50 1 51 10 19 6 -18 16 -35 24 -39z m1100 -308 c62 -32 113 -82 147 -147 17 -34 22 -57 20 -114 -1 -66 1 -75 28 -109 32 -41 60 -120 60 -169 -1 -43 -42 -157 -82 -223 -40 -66 -127 -141 -222 -188 -55 -28 -81 -35 -130 -35 -33 -1 -81 -5 -106 -10 -25 -4 -46 -7 -48 -5 -1 1 22 49 52 106 138 262 210 514 160 563 -19 20 -88 21 -107 2 -7 -8 -23 -63 -35 -123 -25 -126 -99 -364 -142 -455 -35 -73 -39 -125 -12 -130 15 -2 13 -7 -13 -29 l-30 -26 -1 71 c-1 82 -17 121 -67 159 -34 26 -103 144 -126 218 -38 117 -31 229 20 330 41 83 109 132 216 159 32 8 47 18 58 41 20 38 92 108 125 121 86 35 156 33 235 -7z m-911 -345 c5 -20 3 -19 -8 5 -7 17 -16 41 -20 55 -5 20 -3 19 8 -5 7 -16 16 -41 20 -55z m60 -149 c14 -35 24 -66 22 -68 -3 -4 -56 121 -56 134 0 13 9 -4 34 -66z m-279 -95 c83 -39 188 -125 239 -195 51 -71 93 -171 102 -238 6 -52 12 -63 53 -103 25 -25 57 -53 71 -62 l25 -17 -32 0 c-17 -1 -38 -4 -47 -7 -13 -5 -16 1 -16 29 0 35 -1 36 -47 42 -116 16 -406 111 -531 174 -70 35 -149 42 -176 15 -24 -23 -20 -77 7 -106 25 -27 155 -78 277 -109 75 -19 242 -43 374 -55 l69 -6 -33 -16 c-36 -17 -64 -45 -132 -132 -35 -45 -61 -64 -135 -101 -50 -25 -116 -51 -147 -57 -123 -25 -295 25 -385 111 -43 41 -91 125 -91 159 0 10 -15 25 -32 34 -65 33 -98 67 -129 130 -44 89 -44 149 -1 236 64 131 179 205 296 192 48 -6 54 -4 101 34 126 100 190 109 320 48z m10062 -166 c153 -10 294 -37 398 -75 135 -49 286 -151 340 -230 113 -165 173 -482 216 -1147 29 -461 -20 -652 -192 -739 -135 -68 -280 -89 -610 -89 -465 0 -859 61 -995 155 -101 70 -219 225 -294 388 -98 214 -158 484 -194 867 -9 91 -25 263 -37 383 -18 195 -38 352 -55 430 l-6 27 130 0 c118 0 235 4 877 29 105 4 210 9 235 9 25 1 109 -3 187 -8z m-9593 -157 c31 -62 54 -113 51 -113 -5 0 -115 216 -115 227 0 12 7 -1 64 -114z m1273 -104 c95 -59 143 -123 164 -218 8 -40 18 -57 50 -82 81 -64 125 -184 110 -295 -28 -194 -189 -388 -352 -423 -54 -12 -102 -34 -133 -60 -11 -9 -16 -10 -12 -3 15 25 57 199 76 312 21 119 28 382 11 408 -5 9 -26 12 -67 10 l-59 -3 0 -185 c0 -205 -10 -340 -31 -443 -8 -38 -14 -82 -14 -98 0 -26 3 -29 31 -29 l30 0 -28 -39 c-15 -22 -29 -38 -31 -37 -1 2 -9 29 -17 61 -20 75 -46 110 -105 140 -27 14 -74 53 -109 92 -134 148 -195 368 -134 487 26 51 116 140 163 161 28 13 40 24 40 39 0 34 55 120 104 163 84 74 230 93 313 42z m-1117 -159 c0 -24 -3 -27 -25 -22 -19 3 -25 10 -25 32 0 24 3 27 25 22 19 -3 25 -10 25 -32z m103 -706 c140 -36 252 -109 347 -227 28 -34 55 -78 60 -97 17 -64 112 -129 190 -130 l35 -1 -45 -24 c-56 -30 -60 -30 -60 -2 l0 22 -247 0 c-193 0 -274 4 -365 19 -141 22 -205 17 -214 -18 -10 -41 0 -78 26 -98 38 -28 256 -43 419 -28 139 12 319 38 334 47 5 3 -7 -18 -26 -46 -20 -28 -41 -68 -47 -88 -7 -21 -28 -66 -48 -100 -54 -95 -201 -195 -335 -229 -160 -42 -341 23 -418 150 -12 20 -34 34 -74 48 -112 38 -164 88 -207 202 -25 65 -24 119 2 189 43 115 139 199 244 213 39 6 50 12 62 37 9 16 34 49 56 73 91 98 177 123 311 88z m1864 -55 c67 -26 144 -97 164 -153 11 -31 24 -42 67 -63 75 -35 145 -109 172 -180 53 -140 50 -233 -12 -377 -39 -92 -86 -150 -165 -201 -72 -47 -110 -81 -134 -120 l-19 -30 0 140 c0 77 -5 183 -10 235 -12 112 -52 295 -76 345 -16 34 -18 35 -74 35 -44 0 -59 -4 -64 -16 -13 -34 -4 -89 33 -201 46 -139 86 -309 103 -445 l12 -98 33 0 c38 0 39 -8 14 -64 l-17 -38 -24 53 c-28 60 -87 109 -131 109 -35 0 -144 57 -212 110 -103 81 -200 241 -213 351 -5 46 -2 63 22 112 15 33 49 83 76 112 45 50 48 56 48 107 0 125 119 261 251 287 70 14 95 12 156 -10z m-1127 -374 c0 -21 -5 -25 -30 -25 -25 0 -30 4 -30 25 0 21 5 25 30 25 25 0 30 -4 30 -25z m2178 -287 c23 -11 64 -44 90 -74 34 -39 54 -54 73 -54 79 0 182 -66 241 -152 80 -119 107 -237 83 -363 -21 -109 -53 -172 -133 -258 -75 -82 -98 -130 -109 -229 l-6 -56 -24 29 c-14 16 -45 43 -68 59 -37 26 -53 30 -107 30 -111 0 -257 57 -354 137 -77 64 -146 156 -174 231 -20 52 -21 62 -9 115 6 32 27 84 46 115 31 51 34 62 28 107 -3 28 -7 70 -8 95 -4 111 116 243 263 291 36 12 118 0 168 -23z m1247 -412 c28 -13 64 -35 79 -50 25 -22 38 -26 92 -26 98 0 166 -30 245 -109 47 -48 76 -87 102 -143 82 -172 77 -297 -17 -456 -26 -42 -51 -95 -57 -117 -16 -60 -8 -241 12 -261 14 -13 61 -16 325 -21 297 -5 443 0 759 29 l130 11 120 116 c356 344 612 520 940 643 254 95 570 169 889 208 382 47 934 62 1361 39 137 -8 367 -14 511 -14 l261 0 -26 -35 c-180 -246 -334 -424 -585 -676 -350 -349 -679 -605 -1056 -821 -103 -59 -193 -105 -156 -81 426 290 642 476 933 808 130 149 153 180 153 207 0 31 -2 33 -37 33 -35 0 -49 -12 -218 -178 -237 -234 -351 -340 -520 -482 -136 -114 -404 -322 -498 -387 -41 -28 -47 -37 -47 -67 0 -24 5 -36 17 -38 39 -7 -411 -176 -595 -222 -460 -116 -835 -124 -1442 -30 -450 69 -720 104 -817 104 -28 0 -54 4 -58 9 -3 5 59 68 137 139 79 71 257 241 396 377 245 241 253 250 250 284 l-3 36 -50 -1 c-27 0 -108 -6 -178 -12 -212 -20 -737 -15 -982 8 -234 22 -508 63 -723 109 -189 41 -541 137 -510 140 3 1 71 -17 150 -38 309 -85 600 -143 910 -181 234 -28 220 -30 216 27 -3 44 -5 48 -48 69 -64 33 -106 39 -164 24 -160 -42 -368 32 -510 180 -61 65 -78 89 -91 135 -19 63 -14 115 16 182 25 55 24 93 -3 145 -70 134 36 330 212 391 64 23 117 20 175 -7z m-2972 -20 c86 -17 132 -35 202 -79 81 -51 125 -89 157 -135 41 -59 90 -82 177 -82 l70 0 -47 -44 c-46 -44 -47 -44 -50 -20 -3 21 -8 24 -46 24 -23 0 -69 -9 -102 -20 -93 -30 -357 -78 -492 -88 -68 -6 -129 -15 -137 -22 -20 -17 -20 -94 0 -110 61 -51 359 4 642 118 l123 49 -19 -31 c-11 -17 -27 -73 -36 -125 -22 -127 -51 -182 -151 -283 -36 -36 -85 -72 -133 -96 -177 -90 -318 -81 -438 29 -38 35 -48 39 -95 39 -69 1 -130 29 -191 88 -76 74 -114 167 -102 251 15 111 103 228 188 252 30 8 38 17 58 65 25 64 82 140 132 178 36 28 122 54 179 55 20 1 70 -5 111 -13z m697 -236 c0 -10 8 -24 18 -29 13 -8 9 -10 -24 -11 -39 0 -42 2 -46 30 -4 27 -2 30 24 30 21 0 28 -5 28 -20z m390 -245 c0 -3 -18 4 -40 15 -22 11 -40 23 -40 25 0 3 18 -4 40 -15 22 -11 40 -23 40 -25z m300 -145 c19 -11 31 -19 25 -19 -5 0 -26 8 -45 19 -19 11 -30 19 -25 19 6 0 26 -8 45 -19z m29 -150 c89 -25 158 -59 223 -110 54 -44 106 -56 194 -47 30 3 54 3 54 0 0 -3 -9 -18 -20 -33 -11 -15 -24 -38 -29 -51 -9 -23 -10 -22 -10 9 -1 31 -3 32 -42 32 -29 0 -53 -9 -86 -31 -73 -51 -348 -174 -475 -214 -126 -39 -148 -55 -148 -110 0 -17 6 -39 13 -50 22 -30 131 -16 242 31 129 54 341 181 453 271 l42 34 -10 -27 c-6 -15 -9 -85 -8 -158 l3 -131 -49 -100 c-77 -158 -189 -254 -363 -310 -67 -22 -123 -14 -201 26 -55 29 -60 30 -147 24 -77 -6 -97 -4 -135 13 -160 69 -253 248 -205 394 14 41 33 68 85 119 63 62 67 69 73 121 11 114 85 220 183 265 117 53 246 65 363 33z m489 -48 c39 -3 60 -11 77 -28 l24 -24 -27 0 c-15 0 -38 -7 -50 -16 -21 -15 -22 -14 -22 16 0 24 -6 33 -27 40 -16 6 -37 15 -48 20 l-20 11 20 -7 c11 -4 44 -9 73 -12z m163 -67 c19 -8 27 -14 19 -14 -18 0 -79 27 -64 28 7 1 27 -6 45 -14z m859 -305 c50 -11 119 -35 156 -55 74 -39 136 -45 216 -21 l45 13 -20 -51 c-27 -68 -29 -204 -4 -303 23 -86 14 -144 -39 -267 -54 -125 -141 -215 -280 -285 -74 -37 -146 -41 -213 -11 -52 24 -92 25 -133 4 -17 -9 -56 -18 -87 -20 -49 -4 -65 0 -131 33 -56 29 -84 50 -112 88 -101 134 -103 285 -4 390 32 33 33 39 38 127 9 160 64 241 214 313 59 29 182 61 247 64 9 1 58 -8 107 -19z"></path><path id="phLwgfv6L" d="M8520 14710 l0 -60 89 -93 c100 -105 248 -300 301 -397 33 -61 38 -65 74 -68 l39 -3 -6 47 c-6 53 -122 298 -188 397 -61 90 -138 188 -168 214 -20 18 -38 23 -83 23 l-58 0 0 -60z"></path><path id="p1BQ4xzs5v" d="M6713 14684 c-17 -7 -16 -94 0 -116 8 -9 49 -38 93 -63 122 -72 328 -231 414 -319 35 -36 51 -46 77 -46 32 0 33 2 33 39 0 33 -9 51 -52 103 -87 106 -258 270 -352 338 -82 58 -95 64 -145 67 -31 1 -62 0 -68 -3z"></path><path id="p5NeQQE1u" d="M5870 13646 c-210 -82 -499 -249 -598 -345 -39 -38 -42 -45 -42 -96 0 -61 13 -75 72 -75 41 0 94 31 161 96 99 95 364 279 492 341 74 35 75 36 75 74 0 38 -1 39 -37 39 -21 -1 -76 -16 -123 -34z"></path><path id="pGNang7k0" d="M7306 13763 c-41 -81 -195 -290 -288 -390 l-89 -95 3 -57 3 -56 54 -3 c53 -3 54 -3 101 47 119 127 310 470 310 557 0 44 0 44 -35 44 -31 0 -37 -5 -59 -47z"></path><path id="p14bpzrgoF" d="M8860 13740 c-39 -55 -319 -280 -396 -318 -23 -12 -56 -33 -73 -48 -29 -24 -32 -31 -29 -78 l3 -51 58 -3 c57 -3 60 -2 140 55 86 61 258 226 345 331 43 52 52 70 52 103 0 39 0 39 -39 39 -33 0 -43 -5 -61 -30z"></path><path id="p7lMClkIh" d="M8995 9910 c-4 -6 -2 -59 4 -118 6 -59 16 -173 21 -255 6 -81 17 -189 25 -240 21 -129 19 -152 -14 -211 -53 -91 -132 -152 -326 -252 -100 -51 -100 -51 -103 -91 l-3 -40 68 -11 c37 -6 109 -14 158 -17 50 -3 182 -12 295 -21 113 -8 228 -12 257 -8 62 7 108 34 131 75 9 17 63 95 120 175 83 117 102 150 102 179 0 33 -2 35 -34 35 -26 0 -47 -11 -88 -45 l-53 -44 -6 67 c-9 97 -53 201 -187 437 -49 86 -91 144 -215 298 -71 88 -82 97 -112 97 -19 0 -37 -5 -40 -10z"></path><path id="p17whp9UpH" d="M5420 8877 l-55 -12 1 -75 c1 -41 3 -192 5 -335 l4 -260 63 2 c67 3 118 -16 207 -77 131 -90 328 -146 530 -152 l100 -3 0 386 0 386 -95 17 c-52 9 -124 25 -160 36 -309 88 -365 100 -455 99 -49 0 -115 -6 -145 -12z"></path><path id="p15PE9J7JW" d="M8520 8287 c0 -19 19 -80 41 -134 38 -89 80 -214 123 -365 l17 -58 69 0 c53 0 74 4 88 18 32 32 138 187 195 284 49 82 57 104 57 146 l0 50 -37 5 c-21 2 -117 20 -214 40 -97 20 -212 39 -257 43 l-82 7 0 -36z"></path><path id="pVmEVX6gL" d="M5430 7782 l-45 -7 0 -42 c1 -24 2 -162 3 -308 l2 -265 28 -11 c33 -13 241 -79 372 -119 149 -45 288 -80 315 -80 40 0 134 40 146 62 7 12 13 132 16 309 5 242 4 289 -8 293 -8 2 -45 11 -84 20 -38 9 -126 34 -195 57 -214 69 -298 89 -405 93 -55 3 -120 1 -145 -2z"></path><path id="p48JY6bR8" d="M2672 10553 c-51 -10 -179 -226 -278 -468 -67 -167 -94 -255 -94 -313 l0 -43 37 3 c35 3 37 5 69 83 52 129 197 374 309 520 63 83 65 88 65 143 0 32 -5 63 -12 70 -12 12 -50 14 -96 5z"></path><path id="p12dNNJEX8" d="M13052 9368 c-7 -7 -12 -35 -12 -63 0 -45 4 -55 33 -82 116 -110 493 -299 619 -311 l58 -5 0 37 c0 34 -2 37 -65 65 -119 54 -348 204 -430 281 -65 61 -114 90 -154 90 -21 0 -42 -5 -49 -12z"></path><path id="ppCZIFVVm" d="M1347 8763 c-4 -3 -7 -32 -7 -63 0 -48 5 -64 30 -99 115 -158 442 -431 517 -431 32 0 33 2 33 39 0 35 -5 43 -48 75 -76 59 -275 280 -335 373 -14 23 -40 58 -58 77 -27 32 -37 36 -78 36 -26 0 -51 -3 -54 -7z"></path><path id="p10fEJEWD5" d="M2652 8540 c-81 -89 -288 -268 -369 -319 -47 -29 -53 -37 -53 -67 0 -33 1 -34 40 -34 45 0 67 10 180 78 174 104 349 242 378 298 7 14 12 46 10 72 l-3 47 -55 3 -55 3 -73 -81z"></path><path id="pWilrIcYm" d="M14737 8268 c-10 -62 -24 -144 -32 -183 -7 -38 -32 -167 -55 -285 -69 -358 -174 -830 -247 -1105 -25 -93 -54 -208 -64 -254 -10 -46 -34 -134 -53 -195 -18 -61 -43 -147 -55 -191 -13 -44 -31 -107 -41 -140 -74 -238 -143 -449 -205 -625 -40 -113 -89 -254 -108 -315 -50 -151 -159 -428 -152 -385 14 94 25 314 25 504 -1 382 -48 723 -167 1199 l-47 187 -33 0 c-31 0 -33 -2 -33 -37 0 -21 15 -130 34 -243 101 -605 132 -911 143 -1402 l6 -288 24 0 c29 0 29 -2 -34 -150 -76 -177 -113 -279 -113 -310 0 -28 2 -30 38 -29 l37 0 52 107 c29 59 69 141 88 182 35 73 218 499 288 670 43 104 181 489 201 562 8 29 34 112 56 183 151 473 311 1145 410 1720 23 132 50 292 61 355 22 130 59 460 59 533 0 47 0 47 -33 47 l-33 0 -17 -112z"></path><path id="p1Hf2r6jQE" d="M14030 7193 c0 -27 9 -136 20 -243 25 -246 28 -700 5 -890 -8 -69 -15 -151 -15 -182 l0 -58 34 0 c39 0 38 -2 60 110 41 206 50 304 49 550 0 257 -13 382 -65 648 l-22 112 -33 0 c-33 0 -33 0 -33 -47z"></path><path id="plnzbRmyx" d="M15007 6913 c-8 -21 -33 -76 -55 -123 -22 -47 -53 -115 -69 -151 -88 -193 -300 -543 -462 -759 -58 -78 -71 -102 -71 -132 0 -36 1 -38 34 -38 30 0 43 10 123 103 111 126 224 278 293 391 124 206 290 610 290 706 0 39 -1 40 -34 40 -30 0 -36 -5 -49 -37z"></path><path id="pZNbh0iw4" d="M2732 7226 c-17 -30 -32 -58 -32 -63 0 -30 -156 -263 -247 -370 -43 -49 -53 -68 -53 -97 0 -35 1 -36 36 -36 32 0 47 10 117 78 166 160 323 376 334 460 8 63 -8 82 -70 82 l-52 0 -33 -54z"></path><path id="p7rWpwIcb" d="M1392 7028 c-22 -22 -14 -94 13 -126 77 -92 486 -296 618 -309 l57 -6 0 36 c0 34 -3 36 -66 66 -121 57 -329 191 -421 272 -32 28 -72 58 -90 65 -40 17 -95 18 -111 2z"></path><path id="p1GqSCDYHY" d="M11020 5345 c0 -50 73 -136 380 -448 420 -428 824 -805 1176 -1097 23 -19 93 -78 156 -130 161 -136 196 -160 235 -160 31 0 33 2 33 34 0 32 -10 44 -137 154 -135 116 -343 307 -393 360 -25 26 -172 168 -713 682 -711 678 -669 640 -704 640 -31 0 -33 -2 -33 -35z"></path><path id="pABL47RFg" d="M12516 5058 c-4 -167 -14 -391 -22 -498 -8 -107 -17 -243 -21 -302 l-6 -108 35 0 36 0 12 68 c32 185 42 305 47 589 3 166 2 359 -2 428 l-7 125 -32 0 -33 0 -7 -302z"></path><path id="p15OqZIGOL" d="M13056 4768 c-11 -264 -55 -766 -76 -879 -6 -28 -10 -65 -10 -80 0 -27 3 -29 39 -29 35 0 39 3 44 29 17 81 57 348 66 436 15 140 30 560 22 620 -6 49 -7 50 -42 53 l-36 3 -7 -153z"></path><path id="pxORtfLQc" d="M11110 4237 c0 -34 1 -35 73 -61 165 -59 341 -107 515 -141 181 -35 435 -75 476 -75 35 0 36 1 36 39 l0 39 -97 16 c-181 32 -476 97 -693 153 -118 31 -236 58 -262 60 l-48 5 0 -35z"></path><path id="pD6Og6woO" d="M11410 3612 c0 -33 4 -41 23 -45 33 -9 453 -55 600 -67 121 -9 526 -6 685 6 l72 6 0 32 0 33 -272 6 c-405 10 -666 26 -1050 64 l-58 6 0 -41z"></path><path id="pcRHc2qaU" d="M5756 3314 c-3 -9 -6 -35 -6 -58 0 -35 11 -59 61 -137 70 -108 195 -362 228 -461 22 -66 23 -68 57 -68 34 0 34 0 34 48 0 133 -145 538 -237 660 -22 29 -29 32 -77 32 -40 0 -55 -4 -60 -16z"></path><path id="p4flygUcu" d="M7046 2904 c-23 -59 1 -106 107 -209 70 -68 258 -313 302 -393 25 -47 32 -52 62 -52 33 0 33 1 33 45 0 37 -13 72 -68 178 -38 73 -86 159 -107 192 -51 80 -174 234 -196 246 -31 16 -126 11 -133 -7z"></path><path id="p14jCrS9fx" d="M12283 2811 l-153 -78 0 35 0 35 -97 -6 c-54 -3 -177 -11 -273 -18 -355 -23 -903 -3 -1384 52 -98 11 -185 18 -192 15 -8 -3 -14 -20 -14 -39 l0 -34 133 -26 c407 -80 531 -92 957 -91 209 0 412 6 475 13 114 12 338 46 371 56 77 23 -464 -230 -801 -375 -417 -179 -481 -205 -730 -295 -132 -47 -287 -103 -345 -124 -58 -22 -157 -55 -220 -74 -63 -19 -196 -60 -295 -92 -351 -110 -601 -176 -980 -259 -115 -26 -218 -51 -227 -56 -10 -6 -27 -10 -38 -10 -16 0 -20 -7 -20 -35 0 -35 1 -35 43 -35 89 0 661 105 957 176 386 93 969 279 1315 419 448 183 1134 509 1470 700 275 157 265 149 265 190 0 33 -2 35 -32 35 -21 0 -89 -30 -185 -79z"></path><path id="pGX93pLxj" d="M10697 2254 c-258 -43 -953 -63 -1394 -40 l-173 9 0 -35 c0 -36 0 -36 53 -42 74 -9 368 -35 522 -46 341 -24 723 4 1103 82 l102 21 0 33 0 34 -67 -1 c-38 -1 -103 -7 -146 -15z"></path><path id="p10EbKrflM" d="M10843 1947 c-351 -296 -610 -471 -1060 -717 -37 -21 -43 -28 -43 -57 0 -32 1 -33 40 -33 76 0 445 178 660 317 140 92 267 198 423 355 132 134 147 153 147 184 0 32 -2 34 -34 34 -28 0 -51 -14 -133 -83z"></path><path id="prO2hCbRV" d="M7364 1919 c-55 -62 -326 -245 -464 -314 -100 -50 -130 -78 -130 -125 0 -142 206 -61 499 195 128 111 191 188 191 231 0 33 -1 34 -38 34 -27 0 -45 -7 -58 -21z"></path></g></g></svg>